G04 EAGLE Gerber RS-274X export*
G75*
%MOMM*%
%FSLAX34Y34*%
%LPD*%
%INTop Copper*%
%IPPOS*%
%AMOC8*
5,1,8,0,0,1.08239X$1,22.5*%
G01*
%ADD10R,1.300000X1.500000*%
%ADD11R,1.500000X1.300000*%
%ADD12C,1.422400*%
%ADD13R,0.700000X0.900000*%
%ADD14C,1.524000*%
%ADD15R,2.000000X5.500000*%
%ADD16R,5.500000X2.000000*%
%ADD17R,1.000000X0.400000*%
%ADD18R,0.400000X1.000000*%
%ADD19C,0.152400*%
%ADD20C,0.756400*%

G36*
X863620Y253242D02*
X863620Y253242D01*
X863639Y253240D01*
X863741Y253262D01*
X863843Y253279D01*
X863860Y253288D01*
X863880Y253292D01*
X863969Y253345D01*
X864060Y253394D01*
X864074Y253408D01*
X864091Y253418D01*
X864158Y253497D01*
X864230Y253572D01*
X864238Y253590D01*
X864251Y253605D01*
X864290Y253701D01*
X864333Y253795D01*
X864335Y253815D01*
X864343Y253833D01*
X864361Y254000D01*
X864361Y635000D01*
X864358Y635020D01*
X864360Y635039D01*
X864338Y635141D01*
X864322Y635243D01*
X864312Y635260D01*
X864308Y635280D01*
X864255Y635369D01*
X864206Y635460D01*
X864192Y635474D01*
X864182Y635491D01*
X864103Y635558D01*
X864028Y635630D01*
X864010Y635638D01*
X863995Y635651D01*
X863899Y635690D01*
X863805Y635733D01*
X863785Y635735D01*
X863767Y635743D01*
X863600Y635761D01*
X139700Y635761D01*
X139680Y635758D01*
X139661Y635760D01*
X139559Y635738D01*
X139457Y635722D01*
X139440Y635712D01*
X139420Y635708D01*
X139331Y635655D01*
X139240Y635606D01*
X139226Y635592D01*
X139209Y635582D01*
X139142Y635503D01*
X139071Y635428D01*
X139062Y635410D01*
X139049Y635395D01*
X139010Y635299D01*
X138967Y635205D01*
X138965Y635185D01*
X138957Y635167D01*
X138939Y635000D01*
X138939Y254000D01*
X138942Y253980D01*
X138940Y253961D01*
X138962Y253859D01*
X138979Y253757D01*
X138988Y253740D01*
X138992Y253720D01*
X139045Y253631D01*
X139094Y253540D01*
X139108Y253526D01*
X139118Y253509D01*
X139197Y253442D01*
X139272Y253371D01*
X139290Y253362D01*
X139305Y253349D01*
X139401Y253310D01*
X139495Y253267D01*
X139515Y253265D01*
X139533Y253257D01*
X139700Y253239D01*
X863600Y253239D01*
X863620Y253242D01*
G37*
%LPC*%
G36*
X480837Y456848D02*
X480837Y456848D01*
X480845Y456758D01*
X480857Y456728D01*
X480862Y456696D01*
X480905Y456615D01*
X480941Y456531D01*
X480967Y456499D01*
X480978Y456478D01*
X481001Y456456D01*
X481046Y456400D01*
X482476Y454970D01*
X482534Y454928D01*
X482586Y454879D01*
X482633Y454857D01*
X482675Y454827D01*
X482744Y454806D01*
X482809Y454775D01*
X482861Y454770D01*
X482911Y454754D01*
X482982Y454756D01*
X483053Y454748D01*
X483104Y454759D01*
X483156Y454761D01*
X483224Y454785D01*
X483294Y454800D01*
X483339Y454827D01*
X483387Y454845D01*
X483443Y454890D01*
X483505Y454927D01*
X483539Y454966D01*
X483579Y454999D01*
X483618Y455059D01*
X483665Y455114D01*
X483684Y455162D01*
X483712Y455206D01*
X483730Y455275D01*
X483757Y455342D01*
X483765Y455413D01*
X483773Y455444D01*
X483771Y455468D01*
X483775Y455508D01*
X483775Y457932D01*
X484605Y458762D01*
X484617Y458778D01*
X484633Y458790D01*
X484689Y458878D01*
X484749Y458961D01*
X484755Y458980D01*
X484766Y458997D01*
X484791Y459098D01*
X484821Y459197D01*
X484821Y459216D01*
X484826Y459236D01*
X484818Y459339D01*
X484815Y459442D01*
X484808Y459461D01*
X484807Y459481D01*
X484766Y459576D01*
X484731Y459673D01*
X484718Y459689D01*
X484710Y459707D01*
X484605Y459838D01*
X483775Y460668D01*
X483775Y465932D01*
X484605Y466762D01*
X484617Y466778D01*
X484633Y466790D01*
X484689Y466878D01*
X484749Y466961D01*
X484755Y466980D01*
X484766Y466997D01*
X484791Y467098D01*
X484821Y467197D01*
X484821Y467216D01*
X484826Y467236D01*
X484818Y467339D01*
X484815Y467442D01*
X484808Y467461D01*
X484807Y467481D01*
X484766Y467576D01*
X484731Y467673D01*
X484718Y467689D01*
X484710Y467707D01*
X484605Y467838D01*
X483775Y468668D01*
X483775Y473932D01*
X484668Y474825D01*
X495300Y474825D01*
X495320Y474828D01*
X495339Y474826D01*
X495441Y474848D01*
X495543Y474864D01*
X495560Y474874D01*
X495580Y474878D01*
X495669Y474931D01*
X495760Y474980D01*
X495774Y474994D01*
X495791Y475004D01*
X495858Y475083D01*
X495930Y475158D01*
X495938Y475176D01*
X495951Y475191D01*
X495990Y475287D01*
X496033Y475381D01*
X496035Y475401D01*
X496043Y475419D01*
X496061Y475586D01*
X496061Y475749D01*
X496047Y475840D01*
X496039Y475930D01*
X496027Y475960D01*
X496022Y475992D01*
X495979Y476073D01*
X495943Y476157D01*
X495917Y476189D01*
X495906Y476210D01*
X495883Y476232D01*
X495838Y476288D01*
X493013Y479113D01*
X493013Y497771D01*
X495838Y500596D01*
X495891Y500670D01*
X495951Y500740D01*
X495963Y500770D01*
X495982Y500796D01*
X496009Y500883D01*
X496043Y500968D01*
X496047Y501009D01*
X496054Y501031D01*
X496053Y501063D01*
X496061Y501134D01*
X496061Y548640D01*
X496058Y548660D01*
X496060Y548679D01*
X496038Y548781D01*
X496022Y548883D01*
X496012Y548900D01*
X496008Y548920D01*
X495955Y549009D01*
X495906Y549100D01*
X495892Y549114D01*
X495882Y549131D01*
X495803Y549198D01*
X495728Y549270D01*
X495710Y549278D01*
X495695Y549291D01*
X495599Y549330D01*
X495505Y549373D01*
X495485Y549375D01*
X495467Y549383D01*
X495300Y549401D01*
X483686Y549401D01*
X483666Y549398D01*
X483647Y549400D01*
X483545Y549378D01*
X483443Y549362D01*
X483426Y549352D01*
X483406Y549348D01*
X483317Y549295D01*
X483226Y549246D01*
X483212Y549232D01*
X483195Y549222D01*
X483128Y549143D01*
X483056Y549068D01*
X483048Y549050D01*
X483035Y549035D01*
X482996Y548939D01*
X482953Y548845D01*
X482951Y548825D01*
X482943Y548807D01*
X482925Y548640D01*
X482925Y548168D01*
X482032Y547275D01*
X425768Y547275D01*
X424875Y548168D01*
X424875Y569432D01*
X425768Y570325D01*
X482032Y570325D01*
X482925Y569432D01*
X482925Y554736D01*
X482928Y554716D01*
X482926Y554697D01*
X482948Y554595D01*
X482964Y554493D01*
X482974Y554476D01*
X482978Y554456D01*
X483031Y554367D01*
X483080Y554276D01*
X483094Y554262D01*
X483104Y554245D01*
X483183Y554178D01*
X483258Y554106D01*
X483276Y554098D01*
X483291Y554085D01*
X483387Y554046D01*
X483481Y554003D01*
X483501Y554001D01*
X483519Y553993D01*
X483686Y553975D01*
X495300Y553975D01*
X495320Y553978D01*
X495339Y553976D01*
X495441Y553998D01*
X495543Y554014D01*
X495560Y554024D01*
X495580Y554028D01*
X495669Y554081D01*
X495760Y554130D01*
X495774Y554144D01*
X495791Y554154D01*
X495858Y554233D01*
X495930Y554308D01*
X495938Y554326D01*
X495951Y554341D01*
X495990Y554437D01*
X496033Y554531D01*
X496035Y554551D01*
X496043Y554569D01*
X496061Y554736D01*
X496061Y561714D01*
X496058Y561734D01*
X496060Y561753D01*
X496038Y561855D01*
X496022Y561957D01*
X496012Y561974D01*
X496008Y561994D01*
X495955Y562083D01*
X495906Y562174D01*
X495892Y562188D01*
X495882Y562205D01*
X495803Y562272D01*
X495728Y562344D01*
X495710Y562352D01*
X495695Y562365D01*
X495599Y562404D01*
X495505Y562447D01*
X495485Y562449D01*
X495467Y562457D01*
X495300Y562475D01*
X491368Y562475D01*
X490475Y563368D01*
X490475Y579632D01*
X491368Y580525D01*
X505632Y580525D01*
X506525Y579632D01*
X506525Y563368D01*
X505632Y562475D01*
X501396Y562475D01*
X501376Y562472D01*
X501357Y562474D01*
X501255Y562452D01*
X501153Y562436D01*
X501136Y562426D01*
X501116Y562422D01*
X501027Y562369D01*
X500936Y562320D01*
X500922Y562306D01*
X500905Y562296D01*
X500838Y562217D01*
X500766Y562142D01*
X500758Y562124D01*
X500745Y562109D01*
X500706Y562013D01*
X500663Y561919D01*
X500661Y561899D01*
X500653Y561881D01*
X500635Y561714D01*
X500635Y514850D01*
X500646Y514780D01*
X500648Y514708D01*
X500666Y514659D01*
X500674Y514608D01*
X500708Y514544D01*
X500733Y514477D01*
X500765Y514436D01*
X500790Y514390D01*
X500842Y514341D01*
X500886Y514285D01*
X500930Y514257D01*
X500968Y514221D01*
X501033Y514191D01*
X501093Y514152D01*
X501144Y514139D01*
X501191Y514117D01*
X501262Y514109D01*
X501332Y514092D01*
X501384Y514096D01*
X501435Y514090D01*
X501506Y514105D01*
X501577Y514111D01*
X501625Y514131D01*
X501676Y514142D01*
X501737Y514179D01*
X501803Y514207D01*
X501859Y514252D01*
X501887Y514269D01*
X501902Y514286D01*
X501934Y514312D01*
X502952Y515330D01*
X502999Y515395D01*
X503044Y515442D01*
X503050Y515457D01*
X503065Y515474D01*
X503077Y515504D01*
X503096Y515530D01*
X503118Y515603D01*
X503147Y515665D01*
X503149Y515683D01*
X503157Y515702D01*
X503161Y515743D01*
X503168Y515765D01*
X503167Y515797D01*
X503175Y515869D01*
X503175Y528832D01*
X504068Y529725D01*
X518332Y529725D01*
X519225Y528832D01*
X519225Y512568D01*
X518332Y511675D01*
X506081Y511675D01*
X505990Y511661D01*
X505900Y511653D01*
X505870Y511641D01*
X505838Y511636D01*
X505757Y511593D01*
X505673Y511557D01*
X505641Y511531D01*
X505620Y511520D01*
X505598Y511497D01*
X505542Y511452D01*
X505430Y511340D01*
X505377Y511266D01*
X505317Y511196D01*
X505305Y511166D01*
X505286Y511140D01*
X505259Y511053D01*
X505225Y510968D01*
X505221Y510927D01*
X505214Y510905D01*
X505215Y510873D01*
X505207Y510801D01*
X505207Y497785D01*
X505221Y497695D01*
X505229Y497604D01*
X505241Y497575D01*
X505246Y497543D01*
X505289Y497462D01*
X505325Y497378D01*
X505351Y497346D01*
X505362Y497325D01*
X505385Y497303D01*
X505430Y497247D01*
X506391Y496286D01*
X506465Y496233D01*
X506535Y496173D01*
X506565Y496161D01*
X506591Y496142D01*
X506678Y496115D01*
X506763Y496081D01*
X506804Y496077D01*
X506826Y496070D01*
X506858Y496071D01*
X506929Y496063D01*
X596831Y496063D01*
X610324Y482570D01*
X610398Y482517D01*
X610468Y482457D01*
X610498Y482445D01*
X610524Y482426D01*
X610611Y482399D01*
X610696Y482365D01*
X610737Y482361D01*
X610759Y482354D01*
X610791Y482355D01*
X610863Y482347D01*
X612514Y482347D01*
X612534Y482350D01*
X612553Y482348D01*
X612655Y482370D01*
X612757Y482386D01*
X612774Y482396D01*
X612794Y482400D01*
X612883Y482453D01*
X612974Y482502D01*
X612988Y482516D01*
X613005Y482526D01*
X613072Y482605D01*
X613144Y482680D01*
X613152Y482698D01*
X613165Y482713D01*
X613204Y482809D01*
X613247Y482903D01*
X613249Y482923D01*
X613257Y482941D01*
X613275Y483108D01*
X613275Y486532D01*
X614168Y487425D01*
X630432Y487425D01*
X631325Y486532D01*
X631325Y472268D01*
X630432Y471375D01*
X614172Y471375D01*
X614152Y471372D01*
X614133Y471374D01*
X614031Y471352D01*
X613929Y471336D01*
X613912Y471326D01*
X613892Y471322D01*
X613803Y471269D01*
X613712Y471220D01*
X613698Y471206D01*
X613681Y471196D01*
X613614Y471117D01*
X613542Y471042D01*
X613534Y471024D01*
X613521Y471009D01*
X613482Y470913D01*
X613439Y470819D01*
X613437Y470799D01*
X613429Y470781D01*
X613411Y470614D01*
X613411Y470150D01*
X613430Y470034D01*
X613448Y469915D01*
X613450Y469911D01*
X613450Y469907D01*
X613505Y469804D01*
X613561Y469697D01*
X613564Y469694D01*
X613566Y469690D01*
X613651Y469609D01*
X613737Y469525D01*
X613741Y469524D01*
X613744Y469521D01*
X613852Y469470D01*
X613959Y469419D01*
X613963Y469419D01*
X613967Y469417D01*
X614086Y469404D01*
X614203Y469390D01*
X614208Y469390D01*
X614211Y469390D01*
X614225Y469393D01*
X614369Y469415D01*
X614465Y469441D01*
X620777Y469441D01*
X620777Y461162D01*
X620780Y461142D01*
X620778Y461123D01*
X620800Y461021D01*
X620817Y460919D01*
X620826Y460902D01*
X620830Y460882D01*
X620883Y460793D01*
X620932Y460702D01*
X620946Y460688D01*
X620956Y460671D01*
X621035Y460604D01*
X621110Y460533D01*
X621128Y460524D01*
X621143Y460511D01*
X621239Y460472D01*
X621333Y460429D01*
X621353Y460427D01*
X621371Y460419D01*
X621538Y460401D01*
X622301Y460401D01*
X622301Y460399D01*
X621538Y460399D01*
X621518Y460396D01*
X621499Y460398D01*
X621397Y460376D01*
X621295Y460359D01*
X621278Y460350D01*
X621258Y460346D01*
X621169Y460293D01*
X621078Y460244D01*
X621064Y460230D01*
X621047Y460220D01*
X620980Y460141D01*
X620909Y460066D01*
X620900Y460048D01*
X620887Y460033D01*
X620848Y459937D01*
X620805Y459843D01*
X620803Y459823D01*
X620795Y459805D01*
X620777Y459638D01*
X620777Y451359D01*
X618988Y451359D01*
X618918Y451348D01*
X618846Y451346D01*
X618797Y451328D01*
X618746Y451320D01*
X618682Y451286D01*
X618615Y451261D01*
X618574Y451229D01*
X618528Y451204D01*
X618479Y451152D01*
X618423Y451108D01*
X618395Y451064D01*
X618359Y451026D01*
X618329Y450961D01*
X618290Y450901D01*
X618277Y450850D01*
X618255Y450803D01*
X618247Y450732D01*
X618230Y450662D01*
X618234Y450610D01*
X618228Y450559D01*
X618243Y450488D01*
X618249Y450417D01*
X618269Y450369D01*
X618280Y450318D01*
X618317Y450257D01*
X618345Y450191D01*
X618390Y450135D01*
X618407Y450107D01*
X618424Y450092D01*
X618450Y450060D01*
X683476Y385034D01*
X683550Y384981D01*
X683620Y384921D01*
X683650Y384909D01*
X683676Y384890D01*
X683763Y384863D01*
X683848Y384829D01*
X683889Y384825D01*
X683911Y384818D01*
X683943Y384819D01*
X684015Y384811D01*
X783403Y384811D01*
X783518Y384830D01*
X783634Y384847D01*
X783640Y384849D01*
X783646Y384850D01*
X783748Y384905D01*
X783853Y384958D01*
X783858Y384963D01*
X783863Y384966D01*
X783943Y385050D01*
X784026Y385134D01*
X784029Y385140D01*
X784033Y385144D01*
X784040Y385161D01*
X784106Y385281D01*
X784727Y386780D01*
X787300Y389353D01*
X790661Y390745D01*
X809539Y390745D01*
X812900Y389353D01*
X815473Y386780D01*
X816865Y383419D01*
X816865Y379781D01*
X815473Y376420D01*
X812900Y373847D01*
X809539Y372455D01*
X790661Y372455D01*
X787300Y373847D01*
X784727Y376420D01*
X783341Y379767D01*
X783279Y379867D01*
X783219Y379967D01*
X783215Y379971D01*
X783211Y379976D01*
X783121Y380051D01*
X783033Y380127D01*
X783027Y380129D01*
X783022Y380133D01*
X782913Y380175D01*
X782804Y380219D01*
X782797Y380220D01*
X782792Y380221D01*
X782774Y380222D01*
X782638Y380237D01*
X685538Y380237D01*
X685468Y380226D01*
X685396Y380224D01*
X685347Y380206D01*
X685296Y380198D01*
X685232Y380164D01*
X685165Y380139D01*
X685124Y380107D01*
X685078Y380082D01*
X685029Y380031D01*
X684973Y379986D01*
X684945Y379942D01*
X684909Y379904D01*
X684879Y379839D01*
X684840Y379779D01*
X684827Y379728D01*
X684805Y379681D01*
X684797Y379610D01*
X684780Y379540D01*
X684784Y379488D01*
X684778Y379437D01*
X684793Y379366D01*
X684799Y379295D01*
X684819Y379247D01*
X684830Y379196D01*
X684867Y379135D01*
X684895Y379069D01*
X684940Y379013D01*
X684957Y378985D01*
X684974Y378970D01*
X685000Y378938D01*
X729196Y334742D01*
X729270Y334689D01*
X729340Y334629D01*
X729370Y334617D01*
X729396Y334598D01*
X729483Y334571D01*
X729568Y334537D01*
X729609Y334533D01*
X729631Y334526D01*
X729663Y334527D01*
X729734Y334519D01*
X783282Y334519D01*
X783397Y334538D01*
X783513Y334555D01*
X783519Y334557D01*
X783525Y334558D01*
X783628Y334613D01*
X783732Y334666D01*
X783737Y334671D01*
X783742Y334674D01*
X783822Y334758D01*
X783905Y334842D01*
X783908Y334848D01*
X783912Y334852D01*
X783919Y334869D01*
X783985Y334989D01*
X784727Y336780D01*
X787300Y339353D01*
X790661Y340745D01*
X809539Y340745D01*
X812900Y339353D01*
X815473Y336780D01*
X816865Y333419D01*
X816865Y329781D01*
X815473Y326420D01*
X812900Y323847D01*
X809539Y322455D01*
X790661Y322455D01*
X787300Y323847D01*
X784727Y326420D01*
X783462Y329475D01*
X783400Y329575D01*
X783340Y329675D01*
X783336Y329679D01*
X783332Y329684D01*
X783242Y329759D01*
X783153Y329835D01*
X783148Y329837D01*
X783143Y329841D01*
X783034Y329883D01*
X782925Y329927D01*
X782918Y329928D01*
X782913Y329929D01*
X782895Y329930D01*
X782759Y329945D01*
X731258Y329945D01*
X731188Y329934D01*
X731116Y329932D01*
X731067Y329914D01*
X731016Y329906D01*
X730952Y329872D01*
X730885Y329847D01*
X730844Y329815D01*
X730798Y329790D01*
X730749Y329738D01*
X730693Y329694D01*
X730665Y329650D01*
X730629Y329612D01*
X730599Y329547D01*
X730560Y329487D01*
X730547Y329436D01*
X730525Y329389D01*
X730517Y329318D01*
X730500Y329248D01*
X730504Y329196D01*
X730498Y329145D01*
X730513Y329074D01*
X730519Y329003D01*
X730539Y328955D01*
X730550Y328904D01*
X730587Y328843D01*
X730615Y328777D01*
X730660Y328721D01*
X730677Y328693D01*
X730694Y328678D01*
X730720Y328646D01*
X749008Y310358D01*
X749082Y310305D01*
X749152Y310245D01*
X749182Y310233D01*
X749208Y310214D01*
X749295Y310187D01*
X749380Y310153D01*
X749421Y310149D01*
X749443Y310142D01*
X749475Y310143D01*
X749547Y310135D01*
X783537Y310135D01*
X783652Y310154D01*
X783768Y310171D01*
X783774Y310173D01*
X783780Y310174D01*
X783883Y310229D01*
X783987Y310282D01*
X783992Y310287D01*
X783997Y310290D01*
X784077Y310374D01*
X784160Y310458D01*
X784163Y310464D01*
X784167Y310468D01*
X784175Y310485D01*
X784241Y310605D01*
X784727Y311780D01*
X787300Y314353D01*
X790661Y315745D01*
X809539Y315745D01*
X812900Y314353D01*
X815473Y311780D01*
X816865Y308419D01*
X816865Y304781D01*
X815473Y301420D01*
X812900Y298847D01*
X809539Y297455D01*
X790661Y297455D01*
X787300Y298847D01*
X784727Y301420D01*
X783335Y304781D01*
X783335Y304800D01*
X783332Y304820D01*
X783334Y304839D01*
X783312Y304941D01*
X783296Y305043D01*
X783286Y305060D01*
X783282Y305080D01*
X783229Y305169D01*
X783180Y305260D01*
X783166Y305274D01*
X783156Y305291D01*
X783077Y305358D01*
X783002Y305430D01*
X782984Y305438D01*
X782969Y305451D01*
X782873Y305490D01*
X782779Y305533D01*
X782759Y305535D01*
X782741Y305543D01*
X782574Y305561D01*
X747337Y305561D01*
X712508Y340390D01*
X712434Y340443D01*
X712364Y340503D01*
X712334Y340515D01*
X712308Y340534D01*
X712221Y340561D01*
X712136Y340595D01*
X712095Y340599D01*
X712073Y340606D01*
X712041Y340605D01*
X711969Y340613D01*
X602486Y340613D01*
X602466Y340610D01*
X602447Y340612D01*
X602345Y340590D01*
X602243Y340574D01*
X602226Y340564D01*
X602206Y340560D01*
X602117Y340507D01*
X602026Y340458D01*
X602012Y340444D01*
X601995Y340434D01*
X601928Y340355D01*
X601856Y340280D01*
X601848Y340262D01*
X601835Y340247D01*
X601796Y340151D01*
X601753Y340057D01*
X601751Y340037D01*
X601743Y340019D01*
X601725Y339852D01*
X601725Y334768D01*
X600832Y333875D01*
X586568Y333875D01*
X585675Y334768D01*
X585675Y351032D01*
X586568Y351925D01*
X588264Y351925D01*
X588284Y351928D01*
X588303Y351926D01*
X588405Y351948D01*
X588507Y351964D01*
X588524Y351974D01*
X588544Y351978D01*
X588633Y352031D01*
X588724Y352080D01*
X588738Y352094D01*
X588755Y352104D01*
X588822Y352183D01*
X588894Y352258D01*
X588902Y352276D01*
X588915Y352291D01*
X588954Y352387D01*
X588997Y352481D01*
X588999Y352501D01*
X589007Y352519D01*
X589025Y352686D01*
X589025Y364014D01*
X589022Y364034D01*
X589024Y364053D01*
X589002Y364155D01*
X588986Y364257D01*
X588976Y364274D01*
X588972Y364294D01*
X588919Y364383D01*
X588870Y364474D01*
X588856Y364488D01*
X588846Y364505D01*
X588767Y364572D01*
X588692Y364644D01*
X588674Y364652D01*
X588659Y364665D01*
X588563Y364704D01*
X588469Y364747D01*
X588449Y364749D01*
X588431Y364757D01*
X588264Y364775D01*
X587668Y364775D01*
X587536Y364907D01*
X587441Y364976D01*
X587344Y365047D01*
X587340Y365049D01*
X587337Y365051D01*
X587223Y365086D01*
X587110Y365122D01*
X587105Y365122D01*
X587102Y365123D01*
X586983Y365120D01*
X586864Y365118D01*
X586860Y365117D01*
X586856Y365117D01*
X586745Y365076D01*
X586632Y365037D01*
X586629Y365034D01*
X586625Y365033D01*
X586532Y364958D01*
X586438Y364885D01*
X586435Y364881D01*
X586433Y364879D01*
X586425Y364867D01*
X586339Y364750D01*
X586333Y364740D01*
X585860Y364267D01*
X585281Y363932D01*
X584634Y363759D01*
X583299Y363759D01*
X583299Y371062D01*
X583296Y371081D01*
X583298Y371101D01*
X583276Y371203D01*
X583260Y371305D01*
X583259Y371306D01*
X583271Y371333D01*
X583273Y371353D01*
X583281Y371371D01*
X583299Y371538D01*
X583299Y378841D01*
X584635Y378841D01*
X585281Y378668D01*
X585860Y378333D01*
X586333Y377860D01*
X586339Y377850D01*
X586414Y377759D01*
X586488Y377665D01*
X586492Y377663D01*
X586495Y377660D01*
X586594Y377597D01*
X586695Y377532D01*
X586699Y377531D01*
X586703Y377529D01*
X586818Y377501D01*
X586934Y377472D01*
X586938Y377473D01*
X586942Y377472D01*
X587061Y377482D01*
X587179Y377491D01*
X587183Y377493D01*
X587187Y377493D01*
X587295Y377541D01*
X587405Y377588D01*
X587409Y377591D01*
X587412Y377592D01*
X587422Y377601D01*
X587536Y377693D01*
X587668Y377825D01*
X592932Y377825D01*
X593825Y376932D01*
X593825Y365668D01*
X593822Y365665D01*
X593777Y365604D01*
X593746Y365571D01*
X593740Y365558D01*
X593709Y365522D01*
X593697Y365492D01*
X593678Y365466D01*
X593651Y365379D01*
X593617Y365294D01*
X593613Y365253D01*
X593606Y365231D01*
X593607Y365198D01*
X593599Y365127D01*
X593599Y352686D01*
X593602Y352666D01*
X593600Y352647D01*
X593622Y352545D01*
X593638Y352443D01*
X593648Y352426D01*
X593652Y352406D01*
X593705Y352317D01*
X593754Y352226D01*
X593768Y352212D01*
X593778Y352195D01*
X593857Y352128D01*
X593932Y352056D01*
X593950Y352048D01*
X593965Y352035D01*
X594061Y351996D01*
X594155Y351953D01*
X594175Y351951D01*
X594193Y351943D01*
X594360Y351925D01*
X600832Y351925D01*
X601725Y351032D01*
X601725Y345948D01*
X601728Y345928D01*
X601726Y345909D01*
X601748Y345807D01*
X601764Y345705D01*
X601774Y345688D01*
X601778Y345668D01*
X601831Y345579D01*
X601880Y345488D01*
X601894Y345474D01*
X601904Y345457D01*
X601983Y345390D01*
X602058Y345318D01*
X602076Y345310D01*
X602091Y345297D01*
X602187Y345258D01*
X602281Y345215D01*
X602301Y345213D01*
X602319Y345205D01*
X602486Y345187D01*
X710446Y345187D01*
X710516Y345198D01*
X710588Y345200D01*
X710637Y345218D01*
X710688Y345226D01*
X710752Y345260D01*
X710819Y345285D01*
X710860Y345317D01*
X710906Y345342D01*
X710955Y345393D01*
X711011Y345438D01*
X711039Y345482D01*
X711075Y345520D01*
X711105Y345585D01*
X711144Y345645D01*
X711157Y345696D01*
X711179Y345743D01*
X711187Y345814D01*
X711204Y345884D01*
X711200Y345936D01*
X711206Y345987D01*
X711191Y346058D01*
X711185Y346129D01*
X711165Y346177D01*
X711154Y346228D01*
X711117Y346289D01*
X711089Y346355D01*
X711044Y346411D01*
X711027Y346439D01*
X711010Y346454D01*
X710984Y346486D01*
X610124Y447346D01*
X610066Y447388D01*
X610014Y447437D01*
X609967Y447459D01*
X609925Y447489D01*
X609856Y447510D01*
X609791Y447541D01*
X609739Y447546D01*
X609689Y447562D01*
X609618Y447560D01*
X609547Y447568D01*
X609496Y447557D01*
X609444Y447555D01*
X609376Y447531D01*
X609306Y447516D01*
X609262Y447489D01*
X609213Y447471D01*
X609157Y447426D01*
X609095Y447389D01*
X609061Y447350D01*
X609021Y447317D01*
X608982Y447257D01*
X608935Y447202D01*
X608916Y447154D01*
X608888Y447110D01*
X608870Y447041D01*
X608843Y446974D01*
X608835Y446903D01*
X608827Y446872D01*
X608829Y446848D01*
X608825Y446808D01*
X608825Y444668D01*
X607995Y443838D01*
X607983Y443822D01*
X607967Y443810D01*
X607911Y443722D01*
X607851Y443639D01*
X607845Y443620D01*
X607834Y443603D01*
X607809Y443502D01*
X607779Y443403D01*
X607779Y443384D01*
X607774Y443364D01*
X607782Y443261D01*
X607785Y443158D01*
X607792Y443139D01*
X607793Y443119D01*
X607834Y443024D01*
X607869Y442927D01*
X607882Y442911D01*
X607890Y442893D01*
X607995Y442762D01*
X608825Y441932D01*
X608825Y436668D01*
X607995Y435838D01*
X607983Y435822D01*
X607967Y435810D01*
X607911Y435722D01*
X607851Y435639D01*
X607845Y435620D01*
X607834Y435603D01*
X607809Y435502D01*
X607779Y435403D01*
X607779Y435384D01*
X607774Y435364D01*
X607782Y435261D01*
X607785Y435158D01*
X607792Y435139D01*
X607793Y435119D01*
X607834Y435024D01*
X607869Y434927D01*
X607882Y434911D01*
X607890Y434893D01*
X607995Y434762D01*
X608825Y433932D01*
X608825Y428668D01*
X607995Y427838D01*
X607983Y427822D01*
X607967Y427810D01*
X607911Y427722D01*
X607851Y427639D01*
X607845Y427620D01*
X607834Y427603D01*
X607809Y427502D01*
X607779Y427403D01*
X607779Y427384D01*
X607774Y427364D01*
X607782Y427261D01*
X607785Y427158D01*
X607792Y427139D01*
X607793Y427119D01*
X607834Y427024D01*
X607869Y426927D01*
X607882Y426911D01*
X607890Y426893D01*
X607995Y426762D01*
X608825Y425932D01*
X608825Y420668D01*
X607995Y419838D01*
X607983Y419822D01*
X607967Y419810D01*
X607911Y419722D01*
X607851Y419639D01*
X607845Y419620D01*
X607834Y419603D01*
X607809Y419502D01*
X607779Y419403D01*
X607779Y419384D01*
X607774Y419364D01*
X607782Y419261D01*
X607785Y419158D01*
X607792Y419139D01*
X607793Y419119D01*
X607834Y419024D01*
X607869Y418927D01*
X607882Y418911D01*
X607890Y418893D01*
X607995Y418762D01*
X608825Y417932D01*
X608825Y412668D01*
X607995Y411838D01*
X607983Y411822D01*
X607967Y411810D01*
X607911Y411722D01*
X607851Y411639D01*
X607845Y411620D01*
X607834Y411603D01*
X607809Y411502D01*
X607779Y411403D01*
X607779Y411384D01*
X607774Y411364D01*
X607782Y411261D01*
X607785Y411158D01*
X607792Y411139D01*
X607793Y411119D01*
X607834Y411024D01*
X607869Y410927D01*
X607882Y410911D01*
X607890Y410893D01*
X607995Y410762D01*
X608825Y409932D01*
X608825Y404668D01*
X607995Y403838D01*
X607983Y403822D01*
X607967Y403810D01*
X607911Y403722D01*
X607851Y403639D01*
X607845Y403620D01*
X607834Y403603D01*
X607809Y403502D01*
X607779Y403403D01*
X607779Y403384D01*
X607774Y403364D01*
X607782Y403261D01*
X607785Y403158D01*
X607792Y403139D01*
X607793Y403119D01*
X607834Y403024D01*
X607869Y402927D01*
X607882Y402911D01*
X607890Y402893D01*
X607995Y402762D01*
X608825Y401932D01*
X608825Y396668D01*
X607995Y395838D01*
X607983Y395822D01*
X607967Y395810D01*
X607911Y395722D01*
X607851Y395639D01*
X607845Y395620D01*
X607834Y395603D01*
X607809Y395502D01*
X607779Y395403D01*
X607779Y395384D01*
X607774Y395364D01*
X607782Y395261D01*
X607785Y395158D01*
X607792Y395139D01*
X607793Y395119D01*
X607834Y395024D01*
X607869Y394927D01*
X607882Y394911D01*
X607890Y394893D01*
X607995Y394762D01*
X608825Y393932D01*
X608825Y388668D01*
X607995Y387838D01*
X607983Y387822D01*
X607967Y387810D01*
X607911Y387722D01*
X607851Y387639D01*
X607845Y387620D01*
X607834Y387603D01*
X607809Y387502D01*
X607779Y387403D01*
X607779Y387384D01*
X607774Y387364D01*
X607782Y387261D01*
X607785Y387158D01*
X607792Y387139D01*
X607793Y387119D01*
X607834Y387024D01*
X607869Y386927D01*
X607882Y386911D01*
X607890Y386893D01*
X607995Y386762D01*
X608825Y385932D01*
X608825Y380668D01*
X607932Y379775D01*
X596668Y379775D01*
X595775Y380668D01*
X595775Y385932D01*
X596605Y386762D01*
X596617Y386778D01*
X596633Y386790D01*
X596689Y386878D01*
X596749Y386961D01*
X596755Y386980D01*
X596766Y386997D01*
X596791Y387098D01*
X596821Y387197D01*
X596821Y387216D01*
X596826Y387236D01*
X596818Y387339D01*
X596815Y387442D01*
X596808Y387461D01*
X596807Y387481D01*
X596766Y387576D01*
X596731Y387673D01*
X596718Y387689D01*
X596710Y387707D01*
X596605Y387838D01*
X595775Y388668D01*
X595775Y393932D01*
X596605Y394762D01*
X596617Y394778D01*
X596633Y394790D01*
X596689Y394878D01*
X596749Y394961D01*
X596755Y394980D01*
X596766Y394997D01*
X596791Y395098D01*
X596821Y395197D01*
X596821Y395216D01*
X596826Y395236D01*
X596818Y395339D01*
X596815Y395442D01*
X596808Y395461D01*
X596807Y395481D01*
X596766Y395576D01*
X596731Y395673D01*
X596718Y395689D01*
X596710Y395707D01*
X596605Y395838D01*
X595775Y396668D01*
X595775Y401932D01*
X596605Y402762D01*
X596617Y402778D01*
X596633Y402790D01*
X596689Y402878D01*
X596749Y402961D01*
X596755Y402980D01*
X596766Y402997D01*
X596791Y403098D01*
X596821Y403197D01*
X596821Y403216D01*
X596826Y403236D01*
X596818Y403339D01*
X596815Y403442D01*
X596808Y403461D01*
X596807Y403481D01*
X596766Y403576D01*
X596731Y403673D01*
X596718Y403689D01*
X596710Y403707D01*
X596605Y403838D01*
X595775Y404668D01*
X595775Y409932D01*
X596605Y410762D01*
X596617Y410778D01*
X596633Y410790D01*
X596689Y410878D01*
X596749Y410961D01*
X596755Y410980D01*
X596766Y410997D01*
X596791Y411098D01*
X596821Y411197D01*
X596821Y411216D01*
X596826Y411236D01*
X596818Y411339D01*
X596815Y411442D01*
X596808Y411461D01*
X596807Y411481D01*
X596766Y411576D01*
X596731Y411673D01*
X596718Y411689D01*
X596710Y411707D01*
X596605Y411838D01*
X595775Y412668D01*
X595775Y417932D01*
X596605Y418762D01*
X596617Y418778D01*
X596633Y418790D01*
X596689Y418878D01*
X596749Y418961D01*
X596755Y418980D01*
X596766Y418997D01*
X596791Y419098D01*
X596821Y419197D01*
X596821Y419216D01*
X596826Y419236D01*
X596818Y419339D01*
X596815Y419442D01*
X596808Y419461D01*
X596807Y419481D01*
X596766Y419576D01*
X596731Y419673D01*
X596718Y419689D01*
X596710Y419707D01*
X596605Y419838D01*
X595775Y420668D01*
X595775Y425932D01*
X596605Y426762D01*
X596617Y426778D01*
X596633Y426790D01*
X596689Y426878D01*
X596749Y426961D01*
X596755Y426980D01*
X596766Y426997D01*
X596791Y427098D01*
X596821Y427197D01*
X596821Y427216D01*
X596826Y427236D01*
X596818Y427339D01*
X596815Y427442D01*
X596808Y427461D01*
X596807Y427481D01*
X596766Y427576D01*
X596731Y427673D01*
X596718Y427689D01*
X596710Y427707D01*
X596605Y427838D01*
X595775Y428668D01*
X595775Y433932D01*
X596605Y434762D01*
X596617Y434778D01*
X596633Y434790D01*
X596689Y434878D01*
X596749Y434961D01*
X596755Y434980D01*
X596766Y434997D01*
X596791Y435098D01*
X596821Y435197D01*
X596821Y435216D01*
X596826Y435236D01*
X596818Y435339D01*
X596815Y435442D01*
X596808Y435461D01*
X596807Y435481D01*
X596766Y435576D01*
X596731Y435673D01*
X596718Y435689D01*
X596710Y435707D01*
X596605Y435838D01*
X595775Y436668D01*
X595775Y441932D01*
X596605Y442762D01*
X596617Y442778D01*
X596633Y442790D01*
X596689Y442878D01*
X596749Y442961D01*
X596755Y442980D01*
X596766Y442997D01*
X596791Y443098D01*
X596821Y443197D01*
X596821Y443216D01*
X596826Y443236D01*
X596818Y443339D01*
X596815Y443442D01*
X596808Y443461D01*
X596807Y443481D01*
X596766Y443576D01*
X596731Y443673D01*
X596718Y443689D01*
X596710Y443707D01*
X596605Y443838D01*
X595775Y444668D01*
X595775Y449932D01*
X596605Y450762D01*
X596617Y450778D01*
X596633Y450790D01*
X596689Y450878D01*
X596749Y450961D01*
X596755Y450980D01*
X596766Y450997D01*
X596791Y451098D01*
X596821Y451197D01*
X596821Y451216D01*
X596826Y451236D01*
X596818Y451339D01*
X596815Y451442D01*
X596808Y451461D01*
X596807Y451481D01*
X596766Y451576D01*
X596731Y451673D01*
X596718Y451689D01*
X596710Y451707D01*
X596605Y451838D01*
X595775Y452668D01*
X595775Y457932D01*
X595907Y458064D01*
X595976Y458159D01*
X596047Y458256D01*
X596049Y458260D01*
X596051Y458263D01*
X596086Y458377D01*
X596122Y458490D01*
X596122Y458495D01*
X596123Y458498D01*
X596120Y458617D01*
X596118Y458736D01*
X596117Y458740D01*
X596117Y458744D01*
X596076Y458855D01*
X596037Y458968D01*
X596034Y458971D01*
X596033Y458975D01*
X595958Y459068D01*
X595885Y459162D01*
X595881Y459165D01*
X595879Y459167D01*
X595867Y459175D01*
X595750Y459261D01*
X595740Y459267D01*
X595267Y459740D01*
X594932Y460319D01*
X594759Y460966D01*
X594759Y462301D01*
X602062Y462301D01*
X602081Y462304D01*
X602101Y462302D01*
X602203Y462324D01*
X602305Y462340D01*
X602322Y462350D01*
X602342Y462354D01*
X602431Y462407D01*
X602522Y462456D01*
X602536Y462470D01*
X602553Y462480D01*
X602620Y462559D01*
X602691Y462634D01*
X602700Y462652D01*
X602713Y462667D01*
X602751Y462763D01*
X602795Y462857D01*
X602797Y462877D01*
X602805Y462895D01*
X602823Y463062D01*
X602823Y463538D01*
X602820Y463558D01*
X602822Y463577D01*
X602800Y463679D01*
X602783Y463781D01*
X602774Y463798D01*
X602770Y463818D01*
X602717Y463907D01*
X602668Y463998D01*
X602654Y464012D01*
X602644Y464029D01*
X602565Y464096D01*
X602490Y464168D01*
X602472Y464176D01*
X602457Y464189D01*
X602360Y464228D01*
X602267Y464271D01*
X602247Y464273D01*
X602229Y464281D01*
X602062Y464299D01*
X594759Y464299D01*
X594759Y465634D01*
X594932Y466281D01*
X595267Y466860D01*
X595737Y467330D01*
X595779Y467388D01*
X595828Y467440D01*
X595850Y467487D01*
X595880Y467529D01*
X595901Y467598D01*
X595931Y467663D01*
X595937Y467715D01*
X595953Y467765D01*
X595951Y467836D01*
X595959Y467907D01*
X595947Y467958D01*
X595946Y468010D01*
X595922Y468078D01*
X595906Y468148D01*
X595880Y468193D01*
X595862Y468241D01*
X595817Y468297D01*
X595780Y468359D01*
X595740Y468393D01*
X595708Y468433D01*
X595648Y468472D01*
X595593Y468519D01*
X595545Y468538D01*
X595501Y468566D01*
X595432Y468584D01*
X595365Y468611D01*
X595294Y468619D01*
X595263Y468627D01*
X595239Y468625D01*
X595198Y468629D01*
X580644Y468629D01*
X580624Y468626D01*
X580605Y468628D01*
X580503Y468606D01*
X580401Y468590D01*
X580384Y468580D01*
X580364Y468576D01*
X580275Y468523D01*
X580184Y468474D01*
X580170Y468460D01*
X580153Y468450D01*
X580086Y468371D01*
X580014Y468296D01*
X580006Y468278D01*
X579993Y468263D01*
X579954Y468167D01*
X579911Y468073D01*
X579909Y468053D01*
X579901Y468035D01*
X579883Y467868D01*
X579883Y447493D01*
X579897Y447403D01*
X579905Y447312D01*
X579917Y447283D01*
X579922Y447251D01*
X579965Y447170D01*
X580001Y447086D01*
X580027Y447054D01*
X580038Y447033D01*
X580061Y447011D01*
X580106Y446955D01*
X582903Y444158D01*
X582903Y439762D01*
X579794Y436653D01*
X575398Y436653D01*
X572289Y439762D01*
X572289Y444158D01*
X575086Y446955D01*
X575139Y447029D01*
X575199Y447099D01*
X575211Y447129D01*
X575230Y447155D01*
X575257Y447242D01*
X575291Y447327D01*
X575295Y447368D01*
X575302Y447390D01*
X575301Y447422D01*
X575309Y447493D01*
X575309Y467868D01*
X575306Y467888D01*
X575308Y467907D01*
X575286Y468009D01*
X575270Y468111D01*
X575260Y468128D01*
X575256Y468148D01*
X575203Y468237D01*
X575154Y468328D01*
X575140Y468342D01*
X575130Y468359D01*
X575051Y468426D01*
X574976Y468498D01*
X574958Y468506D01*
X574943Y468519D01*
X574847Y468558D01*
X574753Y468601D01*
X574733Y468603D01*
X574715Y468611D01*
X574548Y468629D01*
X520947Y468629D01*
X520856Y468615D01*
X520766Y468607D01*
X520736Y468595D01*
X520704Y468590D01*
X520623Y468547D01*
X520539Y468511D01*
X520507Y468485D01*
X520486Y468474D01*
X520464Y468451D01*
X520408Y468406D01*
X516059Y464057D01*
X508069Y464057D01*
X506506Y465620D01*
X502196Y469930D01*
X501934Y470192D01*
X501876Y470234D01*
X501824Y470283D01*
X501777Y470305D01*
X501735Y470335D01*
X501666Y470356D01*
X501601Y470387D01*
X501549Y470392D01*
X501499Y470408D01*
X501428Y470406D01*
X501357Y470414D01*
X501306Y470403D01*
X501254Y470401D01*
X501186Y470377D01*
X501116Y470362D01*
X501071Y470335D01*
X501023Y470317D01*
X500967Y470272D01*
X500905Y470235D01*
X500871Y470196D01*
X500831Y470163D01*
X500792Y470103D01*
X500745Y470048D01*
X500726Y470000D01*
X500698Y469956D01*
X500680Y469887D01*
X500653Y469820D01*
X500645Y469749D01*
X500637Y469718D01*
X500639Y469694D01*
X500635Y469654D01*
X500635Y459301D01*
X497048Y455714D01*
X496995Y455640D01*
X496935Y455570D01*
X496923Y455540D01*
X496904Y455514D01*
X496877Y455427D01*
X496843Y455342D01*
X496839Y455301D01*
X496832Y455279D01*
X496833Y455247D01*
X496825Y455175D01*
X496825Y452668D01*
X495995Y451838D01*
X495983Y451822D01*
X495967Y451810D01*
X495911Y451722D01*
X495851Y451639D01*
X495845Y451620D01*
X495834Y451603D01*
X495809Y451502D01*
X495779Y451403D01*
X495779Y451384D01*
X495774Y451364D01*
X495782Y451261D01*
X495785Y451158D01*
X495792Y451139D01*
X495793Y451119D01*
X495834Y451024D01*
X495869Y450927D01*
X495882Y450911D01*
X495890Y450893D01*
X495995Y450762D01*
X496825Y449932D01*
X496825Y444668D01*
X495995Y443838D01*
X495983Y443822D01*
X495967Y443810D01*
X495911Y443722D01*
X495851Y443639D01*
X495845Y443620D01*
X495834Y443603D01*
X495809Y443502D01*
X495779Y443403D01*
X495779Y443384D01*
X495774Y443364D01*
X495782Y443261D01*
X495785Y443158D01*
X495792Y443139D01*
X495793Y443119D01*
X495834Y443024D01*
X495869Y442927D01*
X495882Y442911D01*
X495890Y442893D01*
X495995Y442762D01*
X496825Y441932D01*
X496825Y436668D01*
X495995Y435838D01*
X495983Y435822D01*
X495967Y435810D01*
X495911Y435722D01*
X495851Y435639D01*
X495845Y435620D01*
X495834Y435603D01*
X495809Y435502D01*
X495779Y435403D01*
X495779Y435384D01*
X495774Y435364D01*
X495782Y435261D01*
X495785Y435158D01*
X495792Y435139D01*
X495793Y435119D01*
X495834Y435024D01*
X495869Y434927D01*
X495882Y434911D01*
X495890Y434893D01*
X495995Y434762D01*
X496825Y433932D01*
X496825Y428443D01*
X496836Y428373D01*
X496838Y428301D01*
X496856Y428252D01*
X496864Y428201D01*
X496898Y428137D01*
X496923Y428070D01*
X496955Y428029D01*
X496980Y427983D01*
X497032Y427934D01*
X497076Y427878D01*
X497120Y427850D01*
X497158Y427814D01*
X497223Y427784D01*
X497283Y427745D01*
X497334Y427732D01*
X497381Y427710D01*
X497452Y427702D01*
X497522Y427685D01*
X497574Y427689D01*
X497625Y427683D01*
X497696Y427698D01*
X497767Y427704D01*
X497815Y427724D01*
X497866Y427735D01*
X497927Y427772D01*
X497993Y427800D01*
X498049Y427845D01*
X498077Y427862D01*
X498092Y427879D01*
X498124Y427905D01*
X499198Y428979D01*
X503594Y428979D01*
X506703Y425870D01*
X506703Y421474D01*
X503594Y418365D01*
X499198Y418365D01*
X497398Y420165D01*
X497382Y420177D01*
X497369Y420192D01*
X497282Y420248D01*
X497198Y420309D01*
X497179Y420315D01*
X497163Y420325D01*
X497062Y420351D01*
X496963Y420381D01*
X496943Y420381D01*
X496924Y420385D01*
X496821Y420377D01*
X496717Y420375D01*
X496699Y420368D01*
X496679Y420366D01*
X496584Y420326D01*
X496486Y420290D01*
X496471Y420278D01*
X496452Y420270D01*
X496321Y420165D01*
X495995Y419838D01*
X495983Y419822D01*
X495967Y419810D01*
X495911Y419723D01*
X495851Y419639D01*
X495845Y419620D01*
X495834Y419603D01*
X495809Y419502D01*
X495779Y419404D01*
X495779Y419384D01*
X495774Y419364D01*
X495782Y419261D01*
X495785Y419158D01*
X495792Y419139D01*
X495793Y419119D01*
X495834Y419024D01*
X495869Y418927D01*
X495882Y418911D01*
X495890Y418893D01*
X495995Y418762D01*
X496825Y417932D01*
X496825Y412668D01*
X495995Y411838D01*
X495983Y411822D01*
X495967Y411810D01*
X495911Y411722D01*
X495851Y411639D01*
X495845Y411620D01*
X495834Y411603D01*
X495809Y411502D01*
X495779Y411403D01*
X495779Y411384D01*
X495774Y411364D01*
X495782Y411261D01*
X495785Y411158D01*
X495792Y411139D01*
X495793Y411119D01*
X495834Y411024D01*
X495869Y410927D01*
X495882Y410911D01*
X495890Y410893D01*
X495995Y410762D01*
X496943Y409813D01*
X496959Y409802D01*
X496972Y409786D01*
X497059Y409730D01*
X497143Y409670D01*
X497162Y409664D01*
X497178Y409653D01*
X497279Y409628D01*
X497378Y409597D01*
X497398Y409598D01*
X497417Y409593D01*
X497520Y409601D01*
X497624Y409604D01*
X497642Y409611D01*
X497662Y409612D01*
X497757Y409653D01*
X497855Y409688D01*
X497870Y409701D01*
X497889Y409709D01*
X498019Y409813D01*
X515678Y427472D01*
X515731Y427546D01*
X515791Y427616D01*
X515803Y427646D01*
X515822Y427672D01*
X515849Y427759D01*
X515883Y427844D01*
X515887Y427885D01*
X515894Y427907D01*
X515893Y427939D01*
X515901Y428010D01*
X515901Y431966D01*
X519010Y435075D01*
X523406Y435075D01*
X526515Y431966D01*
X526515Y427570D01*
X523406Y424461D01*
X519450Y424461D01*
X519360Y424447D01*
X519269Y424439D01*
X519240Y424427D01*
X519208Y424422D01*
X519127Y424379D01*
X519043Y424343D01*
X519011Y424317D01*
X518990Y424306D01*
X518968Y424283D01*
X518912Y424238D01*
X499834Y405160D01*
X499823Y405144D01*
X499807Y405132D01*
X499751Y405044D01*
X499691Y404961D01*
X499685Y404942D01*
X499674Y404925D01*
X499649Y404824D01*
X499618Y404725D01*
X499619Y404706D01*
X499614Y404686D01*
X499622Y404583D01*
X499625Y404480D01*
X499632Y404461D01*
X499633Y404441D01*
X499673Y404346D01*
X499709Y404249D01*
X499722Y404233D01*
X499729Y404215D01*
X499834Y404084D01*
X500635Y403283D01*
X500635Y380053D01*
X499706Y379124D01*
X499664Y379066D01*
X499615Y379014D01*
X499593Y378967D01*
X499563Y378925D01*
X499542Y378856D01*
X499511Y378791D01*
X499506Y378739D01*
X499490Y378689D01*
X499492Y378618D01*
X499484Y378547D01*
X499495Y378496D01*
X499497Y378444D01*
X499521Y378376D01*
X499536Y378306D01*
X499563Y378261D01*
X499581Y378213D01*
X499626Y378157D01*
X499663Y378095D01*
X499702Y378061D01*
X499735Y378021D01*
X499795Y377982D01*
X499850Y377935D01*
X499898Y377916D01*
X499942Y377888D01*
X500011Y377870D01*
X500078Y377843D01*
X500149Y377835D01*
X500180Y377827D01*
X500204Y377829D01*
X500244Y377825D01*
X504932Y377825D01*
X505762Y376995D01*
X505778Y376983D01*
X505790Y376967D01*
X505878Y376911D01*
X505961Y376851D01*
X505980Y376845D01*
X505997Y376834D01*
X506098Y376809D01*
X506197Y376779D01*
X506216Y376779D01*
X506236Y376774D01*
X506339Y376782D01*
X506442Y376785D01*
X506461Y376792D01*
X506481Y376793D01*
X506576Y376834D01*
X506673Y376869D01*
X506689Y376882D01*
X506707Y376890D01*
X506838Y376995D01*
X507668Y377825D01*
X512932Y377825D01*
X513762Y376995D01*
X513778Y376983D01*
X513790Y376967D01*
X513878Y376911D01*
X513961Y376851D01*
X513980Y376845D01*
X513997Y376834D01*
X514098Y376809D01*
X514197Y376779D01*
X514216Y376779D01*
X514236Y376774D01*
X514339Y376782D01*
X514442Y376785D01*
X514461Y376792D01*
X514481Y376793D01*
X514576Y376834D01*
X514673Y376869D01*
X514689Y376882D01*
X514707Y376890D01*
X514838Y376995D01*
X515668Y377825D01*
X520932Y377825D01*
X521762Y376995D01*
X521778Y376983D01*
X521790Y376967D01*
X521878Y376911D01*
X521961Y376851D01*
X521980Y376845D01*
X521997Y376834D01*
X522098Y376809D01*
X522197Y376779D01*
X522216Y376779D01*
X522236Y376774D01*
X522339Y376782D01*
X522442Y376785D01*
X522461Y376792D01*
X522481Y376793D01*
X522576Y376834D01*
X522673Y376869D01*
X522689Y376882D01*
X522707Y376890D01*
X522838Y376995D01*
X523668Y377825D01*
X528932Y377825D01*
X529762Y376995D01*
X529778Y376983D01*
X529790Y376967D01*
X529878Y376911D01*
X529961Y376851D01*
X529980Y376845D01*
X529997Y376834D01*
X530098Y376809D01*
X530197Y376779D01*
X530216Y376779D01*
X530236Y376774D01*
X530339Y376782D01*
X530442Y376785D01*
X530461Y376792D01*
X530481Y376793D01*
X530576Y376834D01*
X530673Y376869D01*
X530689Y376882D01*
X530707Y376890D01*
X530838Y376995D01*
X531668Y377825D01*
X536932Y377825D01*
X537762Y376995D01*
X537778Y376983D01*
X537790Y376967D01*
X537878Y376911D01*
X537961Y376851D01*
X537980Y376845D01*
X537997Y376834D01*
X538098Y376809D01*
X538197Y376779D01*
X538216Y376779D01*
X538236Y376774D01*
X538339Y376782D01*
X538442Y376785D01*
X538461Y376792D01*
X538481Y376793D01*
X538576Y376834D01*
X538673Y376869D01*
X538689Y376882D01*
X538707Y376890D01*
X538838Y376995D01*
X539668Y377825D01*
X544932Y377825D01*
X545762Y376995D01*
X545778Y376983D01*
X545790Y376967D01*
X545878Y376911D01*
X545961Y376851D01*
X545980Y376845D01*
X545997Y376834D01*
X546098Y376809D01*
X546197Y376779D01*
X546216Y376779D01*
X546236Y376774D01*
X546339Y376782D01*
X546442Y376785D01*
X546461Y376792D01*
X546481Y376793D01*
X546576Y376834D01*
X546673Y376869D01*
X546689Y376882D01*
X546707Y376890D01*
X546838Y376995D01*
X547668Y377825D01*
X552932Y377825D01*
X553762Y376995D01*
X553778Y376983D01*
X553790Y376967D01*
X553878Y376911D01*
X553961Y376851D01*
X553980Y376845D01*
X553997Y376834D01*
X554098Y376809D01*
X554197Y376779D01*
X554216Y376779D01*
X554236Y376774D01*
X554339Y376782D01*
X554442Y376785D01*
X554461Y376792D01*
X554481Y376793D01*
X554576Y376834D01*
X554673Y376869D01*
X554689Y376882D01*
X554707Y376890D01*
X554838Y376995D01*
X555668Y377825D01*
X560932Y377825D01*
X561762Y376995D01*
X561778Y376983D01*
X561790Y376967D01*
X561878Y376911D01*
X561961Y376851D01*
X561980Y376845D01*
X561997Y376834D01*
X562098Y376809D01*
X562197Y376779D01*
X562216Y376779D01*
X562236Y376774D01*
X562339Y376782D01*
X562442Y376785D01*
X562461Y376792D01*
X562481Y376793D01*
X562576Y376834D01*
X562673Y376869D01*
X562689Y376882D01*
X562707Y376890D01*
X562838Y376995D01*
X563668Y377825D01*
X568932Y377825D01*
X569762Y376995D01*
X569778Y376983D01*
X569790Y376967D01*
X569878Y376911D01*
X569961Y376851D01*
X569980Y376845D01*
X569997Y376834D01*
X570098Y376809D01*
X570197Y376779D01*
X570216Y376779D01*
X570236Y376774D01*
X570339Y376782D01*
X570442Y376785D01*
X570461Y376792D01*
X570481Y376793D01*
X570576Y376834D01*
X570673Y376869D01*
X570689Y376882D01*
X570707Y376890D01*
X570838Y376995D01*
X571668Y377825D01*
X576932Y377825D01*
X577064Y377693D01*
X577159Y377624D01*
X577256Y377553D01*
X577260Y377551D01*
X577263Y377549D01*
X577377Y377514D01*
X577490Y377478D01*
X577495Y377478D01*
X577498Y377477D01*
X577617Y377480D01*
X577736Y377482D01*
X577740Y377483D01*
X577744Y377483D01*
X577855Y377524D01*
X577968Y377563D01*
X577971Y377566D01*
X577975Y377567D01*
X578068Y377642D01*
X578162Y377715D01*
X578165Y377719D01*
X578167Y377721D01*
X578175Y377733D01*
X578261Y377850D01*
X578267Y377860D01*
X578740Y378333D01*
X579319Y378668D01*
X579966Y378841D01*
X581301Y378841D01*
X581301Y371538D01*
X581304Y371519D01*
X581302Y371499D01*
X581324Y371397D01*
X581340Y371295D01*
X581341Y371294D01*
X581329Y371267D01*
X581327Y371247D01*
X581319Y371229D01*
X581301Y371062D01*
X581301Y363759D01*
X579966Y363759D01*
X579319Y363932D01*
X578740Y364267D01*
X578267Y364740D01*
X578261Y364750D01*
X578186Y364841D01*
X578112Y364935D01*
X578108Y364937D01*
X578105Y364940D01*
X578006Y365003D01*
X577905Y365068D01*
X577901Y365069D01*
X577897Y365071D01*
X577782Y365099D01*
X577666Y365128D01*
X577662Y365127D01*
X577658Y365128D01*
X577539Y365118D01*
X577421Y365109D01*
X577417Y365107D01*
X577413Y365107D01*
X577305Y365059D01*
X577195Y365012D01*
X577191Y365009D01*
X577188Y365008D01*
X577178Y364999D01*
X577064Y364907D01*
X576932Y364775D01*
X571668Y364775D01*
X570838Y365605D01*
X570822Y365617D01*
X570810Y365633D01*
X570722Y365689D01*
X570639Y365749D01*
X570620Y365755D01*
X570603Y365766D01*
X570502Y365791D01*
X570403Y365821D01*
X570384Y365821D01*
X570364Y365826D01*
X570261Y365818D01*
X570158Y365815D01*
X570139Y365808D01*
X570119Y365807D01*
X570024Y365766D01*
X569927Y365731D01*
X569911Y365718D01*
X569893Y365710D01*
X569762Y365605D01*
X568932Y364775D01*
X563668Y364775D01*
X562838Y365605D01*
X562822Y365617D01*
X562810Y365633D01*
X562722Y365689D01*
X562639Y365749D01*
X562620Y365755D01*
X562603Y365766D01*
X562502Y365791D01*
X562403Y365821D01*
X562384Y365821D01*
X562364Y365826D01*
X562261Y365818D01*
X562158Y365815D01*
X562139Y365808D01*
X562119Y365807D01*
X562024Y365766D01*
X561927Y365731D01*
X561911Y365718D01*
X561893Y365710D01*
X561762Y365605D01*
X560932Y364775D01*
X555668Y364775D01*
X554838Y365605D01*
X554822Y365617D01*
X554810Y365633D01*
X554722Y365689D01*
X554639Y365749D01*
X554620Y365755D01*
X554603Y365766D01*
X554502Y365791D01*
X554403Y365821D01*
X554384Y365821D01*
X554364Y365826D01*
X554261Y365818D01*
X554158Y365815D01*
X554139Y365808D01*
X554119Y365807D01*
X554024Y365766D01*
X553927Y365731D01*
X553911Y365718D01*
X553893Y365710D01*
X553762Y365605D01*
X552932Y364775D01*
X547668Y364775D01*
X546838Y365605D01*
X546822Y365617D01*
X546810Y365633D01*
X546722Y365689D01*
X546639Y365749D01*
X546620Y365755D01*
X546603Y365766D01*
X546502Y365791D01*
X546403Y365821D01*
X546384Y365821D01*
X546364Y365826D01*
X546261Y365818D01*
X546158Y365815D01*
X546139Y365808D01*
X546119Y365807D01*
X546024Y365766D01*
X545927Y365731D01*
X545911Y365718D01*
X545893Y365710D01*
X545762Y365605D01*
X544932Y364775D01*
X539668Y364775D01*
X538838Y365605D01*
X538822Y365617D01*
X538810Y365633D01*
X538722Y365689D01*
X538639Y365749D01*
X538620Y365755D01*
X538603Y365766D01*
X538502Y365791D01*
X538403Y365821D01*
X538384Y365821D01*
X538364Y365826D01*
X538261Y365818D01*
X538158Y365815D01*
X538139Y365808D01*
X538119Y365807D01*
X538024Y365766D01*
X537927Y365731D01*
X537911Y365718D01*
X537893Y365710D01*
X537762Y365605D01*
X536932Y364775D01*
X531668Y364775D01*
X530838Y365605D01*
X530822Y365617D01*
X530810Y365633D01*
X530722Y365689D01*
X530639Y365749D01*
X530620Y365755D01*
X530603Y365766D01*
X530502Y365791D01*
X530403Y365821D01*
X530384Y365821D01*
X530364Y365826D01*
X530261Y365818D01*
X530158Y365815D01*
X530139Y365808D01*
X530119Y365807D01*
X530024Y365766D01*
X529927Y365731D01*
X529911Y365718D01*
X529893Y365710D01*
X529762Y365605D01*
X528932Y364775D01*
X523668Y364775D01*
X522838Y365605D01*
X522822Y365617D01*
X522810Y365633D01*
X522722Y365689D01*
X522639Y365749D01*
X522620Y365755D01*
X522603Y365766D01*
X522502Y365791D01*
X522403Y365821D01*
X522384Y365821D01*
X522364Y365826D01*
X522261Y365818D01*
X522158Y365815D01*
X522139Y365808D01*
X522119Y365807D01*
X522024Y365766D01*
X521927Y365731D01*
X521911Y365718D01*
X521893Y365710D01*
X521762Y365605D01*
X520932Y364775D01*
X515668Y364775D01*
X514838Y365605D01*
X514822Y365617D01*
X514810Y365633D01*
X514722Y365689D01*
X514639Y365749D01*
X514620Y365755D01*
X514603Y365766D01*
X514502Y365791D01*
X514403Y365821D01*
X514384Y365821D01*
X514364Y365826D01*
X514261Y365818D01*
X514158Y365815D01*
X514139Y365808D01*
X514119Y365807D01*
X514024Y365766D01*
X513927Y365731D01*
X513911Y365718D01*
X513893Y365710D01*
X513762Y365605D01*
X512932Y364775D01*
X507668Y364775D01*
X506838Y365605D01*
X506822Y365617D01*
X506810Y365633D01*
X506722Y365689D01*
X506639Y365749D01*
X506620Y365755D01*
X506603Y365766D01*
X506502Y365791D01*
X506403Y365821D01*
X506384Y365821D01*
X506364Y365826D01*
X506261Y365818D01*
X506158Y365815D01*
X506139Y365808D01*
X506119Y365807D01*
X506024Y365766D01*
X505927Y365731D01*
X505911Y365718D01*
X505893Y365710D01*
X505762Y365605D01*
X504932Y364775D01*
X499668Y364775D01*
X498775Y365668D01*
X498775Y376356D01*
X498764Y376426D01*
X498762Y376498D01*
X498744Y376547D01*
X498736Y376598D01*
X498702Y376662D01*
X498677Y376729D01*
X498645Y376770D01*
X498620Y376816D01*
X498568Y376865D01*
X498524Y376921D01*
X498480Y376949D01*
X498442Y376985D01*
X498377Y377015D01*
X498317Y377054D01*
X498266Y377067D01*
X498219Y377089D01*
X498148Y377097D01*
X498078Y377114D01*
X498026Y377110D01*
X497975Y377116D01*
X497904Y377101D01*
X497833Y377095D01*
X497785Y377075D01*
X497734Y377064D01*
X497673Y377027D01*
X497607Y376999D01*
X497551Y376954D01*
X497523Y376937D01*
X497508Y376920D01*
X497476Y376894D01*
X496247Y375665D01*
X485895Y375665D01*
X485804Y375651D01*
X485714Y375643D01*
X485684Y375631D01*
X485652Y375626D01*
X485571Y375583D01*
X485487Y375547D01*
X485455Y375521D01*
X485434Y375510D01*
X485412Y375487D01*
X485356Y375442D01*
X433763Y323849D01*
X366337Y323849D01*
X361949Y328237D01*
X361949Y347733D01*
X361935Y347824D01*
X361927Y347914D01*
X361915Y347944D01*
X361910Y347976D01*
X361867Y348057D01*
X361831Y348141D01*
X361805Y348173D01*
X361794Y348194D01*
X361771Y348216D01*
X361726Y348272D01*
X237266Y472732D01*
X237208Y472774D01*
X237156Y472823D01*
X237109Y472845D01*
X237067Y472875D01*
X236998Y472896D01*
X236933Y472927D01*
X236881Y472932D01*
X236831Y472948D01*
X236760Y472946D01*
X236689Y472954D01*
X236638Y472943D01*
X236586Y472941D01*
X236518Y472917D01*
X236448Y472902D01*
X236404Y472875D01*
X236355Y472857D01*
X236299Y472812D01*
X236237Y472775D01*
X236203Y472736D01*
X236163Y472703D01*
X236124Y472643D01*
X236077Y472588D01*
X236058Y472540D01*
X236030Y472496D01*
X236012Y472427D01*
X235985Y472360D01*
X235977Y472289D01*
X235969Y472258D01*
X235971Y472234D01*
X235967Y472194D01*
X235967Y465835D01*
X227329Y465835D01*
X227329Y481978D01*
X228185Y481843D01*
X229707Y481348D01*
X229778Y481312D01*
X229850Y481289D01*
X229919Y481257D01*
X229967Y481251D01*
X230013Y481237D01*
X230088Y481238D01*
X230163Y481230D01*
X230211Y481240D01*
X230259Y481241D01*
X230330Y481266D01*
X230404Y481282D01*
X230445Y481307D01*
X230491Y481323D01*
X230550Y481369D01*
X230615Y481408D01*
X230646Y481445D01*
X230684Y481474D01*
X230726Y481538D01*
X230775Y481595D01*
X230793Y481640D01*
X230819Y481680D01*
X230839Y481753D01*
X230867Y481823D01*
X230874Y481888D01*
X230882Y481918D01*
X230880Y481943D01*
X230885Y481990D01*
X230885Y498214D01*
X230882Y498234D01*
X230884Y498253D01*
X230862Y498355D01*
X230846Y498457D01*
X230836Y498474D01*
X230832Y498494D01*
X230779Y498583D01*
X230730Y498674D01*
X230716Y498688D01*
X230706Y498705D01*
X230627Y498772D01*
X230552Y498844D01*
X230534Y498852D01*
X230519Y498865D01*
X230423Y498904D01*
X230329Y498947D01*
X230309Y498949D01*
X230291Y498957D01*
X230124Y498975D01*
X224668Y498975D01*
X223775Y499868D01*
X223775Y516132D01*
X224668Y517025D01*
X238932Y517025D01*
X239825Y516132D01*
X239825Y499868D01*
X238932Y498975D01*
X236220Y498975D01*
X236200Y498972D01*
X236181Y498974D01*
X236079Y498952D01*
X235977Y498936D01*
X235960Y498926D01*
X235940Y498922D01*
X235851Y498869D01*
X235760Y498820D01*
X235746Y498806D01*
X235729Y498796D01*
X235662Y498717D01*
X235590Y498642D01*
X235582Y498624D01*
X235569Y498609D01*
X235530Y498513D01*
X235487Y498419D01*
X235485Y498399D01*
X235477Y498381D01*
X235459Y498214D01*
X235459Y481323D01*
X235473Y481232D01*
X235481Y481142D01*
X235493Y481112D01*
X235498Y481080D01*
X235541Y480999D01*
X235577Y480915D01*
X235603Y480883D01*
X235614Y480862D01*
X235637Y480840D01*
X235682Y480784D01*
X366523Y349943D01*
X366523Y330447D01*
X366537Y330356D01*
X366545Y330266D01*
X366557Y330236D01*
X366562Y330204D01*
X366605Y330123D01*
X366641Y330039D01*
X366667Y330007D01*
X366678Y329986D01*
X366701Y329964D01*
X366746Y329908D01*
X368008Y328646D01*
X368082Y328593D01*
X368152Y328533D01*
X368182Y328521D01*
X368208Y328502D01*
X368295Y328475D01*
X368380Y328441D01*
X368421Y328437D01*
X368443Y328430D01*
X368475Y328431D01*
X368547Y328423D01*
X431553Y328423D01*
X431644Y328437D01*
X431734Y328445D01*
X431764Y328457D01*
X431796Y328462D01*
X431877Y328505D01*
X431961Y328541D01*
X431993Y328567D01*
X432014Y328578D01*
X432036Y328601D01*
X432092Y328646D01*
X433108Y329662D01*
X445038Y341592D01*
X483552Y380106D01*
X483605Y380180D01*
X483665Y380250D01*
X483677Y380280D01*
X483696Y380306D01*
X483723Y380393D01*
X483757Y380478D01*
X483761Y380519D01*
X483768Y380541D01*
X483767Y380573D01*
X483775Y380645D01*
X483775Y385932D01*
X484605Y386762D01*
X484617Y386778D01*
X484633Y386790D01*
X484689Y386878D01*
X484749Y386961D01*
X484755Y386980D01*
X484766Y386997D01*
X484791Y387098D01*
X484821Y387197D01*
X484821Y387216D01*
X484826Y387236D01*
X484818Y387339D01*
X484815Y387442D01*
X484808Y387461D01*
X484807Y387481D01*
X484766Y387576D01*
X484731Y387673D01*
X484718Y387689D01*
X484710Y387707D01*
X484605Y387838D01*
X483775Y388668D01*
X483775Y393932D01*
X484605Y394762D01*
X484617Y394778D01*
X484633Y394790D01*
X484689Y394878D01*
X484749Y394961D01*
X484755Y394980D01*
X484766Y394997D01*
X484791Y395098D01*
X484821Y395197D01*
X484821Y395216D01*
X484826Y395236D01*
X484818Y395339D01*
X484815Y395442D01*
X484808Y395461D01*
X484807Y395481D01*
X484766Y395576D01*
X484731Y395673D01*
X484718Y395689D01*
X484710Y395707D01*
X484605Y395838D01*
X483775Y396668D01*
X483775Y401281D01*
X483764Y401351D01*
X483762Y401423D01*
X483744Y401472D01*
X483736Y401523D01*
X483702Y401587D01*
X483677Y401654D01*
X483645Y401695D01*
X483620Y401741D01*
X483568Y401790D01*
X483524Y401846D01*
X483480Y401874D01*
X483442Y401910D01*
X483377Y401940D01*
X483317Y401979D01*
X483266Y401992D01*
X483219Y402014D01*
X483148Y402022D01*
X483078Y402039D01*
X483026Y402035D01*
X482975Y402041D01*
X482904Y402026D01*
X482833Y402020D01*
X482785Y402000D01*
X482734Y401989D01*
X482673Y401952D01*
X482607Y401924D01*
X482551Y401879D01*
X482523Y401862D01*
X482508Y401845D01*
X482476Y401819D01*
X480734Y400077D01*
X476502Y400077D01*
X476482Y400074D01*
X476463Y400076D01*
X476361Y400054D01*
X476259Y400038D01*
X476242Y400028D01*
X476222Y400024D01*
X476133Y399971D01*
X476042Y399922D01*
X476028Y399908D01*
X476011Y399898D01*
X475944Y399819D01*
X475872Y399744D01*
X475864Y399726D01*
X475851Y399711D01*
X475812Y399615D01*
X475769Y399521D01*
X475767Y399501D01*
X475759Y399483D01*
X475741Y399316D01*
X475741Y395223D01*
X468223Y395223D01*
X468223Y403741D01*
X472468Y403741D01*
X472488Y403744D01*
X472507Y403742D01*
X472609Y403764D01*
X472711Y403780D01*
X472728Y403790D01*
X472748Y403794D01*
X472837Y403847D01*
X472928Y403896D01*
X472942Y403910D01*
X472959Y403920D01*
X473026Y403999D01*
X473098Y404074D01*
X473106Y404092D01*
X473119Y404107D01*
X473158Y404203D01*
X473201Y404297D01*
X473203Y404317D01*
X473211Y404335D01*
X473229Y404502D01*
X473229Y407582D01*
X475827Y410180D01*
X475838Y410196D01*
X475854Y410208D01*
X475910Y410296D01*
X475970Y410379D01*
X475976Y410398D01*
X475987Y410415D01*
X476012Y410516D01*
X476043Y410615D01*
X476042Y410634D01*
X476047Y410654D01*
X476039Y410757D01*
X476036Y410860D01*
X476030Y410879D01*
X476028Y410899D01*
X475988Y410994D01*
X475952Y411091D01*
X475939Y411107D01*
X475932Y411125D01*
X475827Y411256D01*
X473229Y413854D01*
X473229Y417866D01*
X473218Y417936D01*
X473216Y418008D01*
X473198Y418057D01*
X473190Y418108D01*
X473156Y418172D01*
X473131Y418239D01*
X473099Y418280D01*
X473074Y418326D01*
X473022Y418375D01*
X472978Y418431D01*
X472934Y418459D01*
X472896Y418495D01*
X472831Y418525D01*
X472771Y418564D01*
X472720Y418577D01*
X472673Y418599D01*
X472602Y418607D01*
X472532Y418624D01*
X472480Y418620D01*
X472429Y418626D01*
X472358Y418611D01*
X472287Y418605D01*
X472239Y418585D01*
X472188Y418574D01*
X472127Y418537D01*
X472061Y418509D01*
X472005Y418464D01*
X471977Y418447D01*
X471962Y418430D01*
X471930Y418404D01*
X461234Y407708D01*
X459671Y406145D01*
X456939Y406145D01*
X456848Y406131D01*
X456758Y406123D01*
X456728Y406111D01*
X456696Y406106D01*
X456615Y406063D01*
X456531Y406027D01*
X456499Y406001D01*
X456478Y405990D01*
X456456Y405967D01*
X456400Y405922D01*
X454502Y404024D01*
X454460Y403966D01*
X454411Y403914D01*
X454389Y403867D01*
X454359Y403825D01*
X454338Y403756D01*
X454307Y403691D01*
X454302Y403639D01*
X454286Y403589D01*
X454288Y403518D01*
X454280Y403447D01*
X454291Y403396D01*
X454293Y403344D01*
X454317Y403276D01*
X454332Y403206D01*
X454359Y403161D01*
X454377Y403113D01*
X454422Y403057D01*
X454459Y402995D01*
X454498Y402961D01*
X454531Y402921D01*
X454591Y402882D01*
X454646Y402835D01*
X454694Y402816D01*
X454738Y402788D01*
X454779Y402777D01*
X455725Y401832D01*
X455725Y385568D01*
X454832Y384675D01*
X440568Y384675D01*
X439675Y385568D01*
X439675Y390144D01*
X439672Y390164D01*
X439674Y390183D01*
X439652Y390285D01*
X439636Y390387D01*
X439626Y390404D01*
X439622Y390424D01*
X439569Y390513D01*
X439520Y390604D01*
X439506Y390618D01*
X439496Y390635D01*
X439417Y390702D01*
X439342Y390774D01*
X439324Y390782D01*
X439309Y390795D01*
X439213Y390834D01*
X439119Y390877D01*
X439099Y390879D01*
X439081Y390887D01*
X438914Y390905D01*
X435603Y390905D01*
X435512Y390891D01*
X435422Y390883D01*
X435392Y390871D01*
X435360Y390866D01*
X435279Y390823D01*
X435195Y390787D01*
X435163Y390761D01*
X435142Y390750D01*
X435120Y390727D01*
X435064Y390682D01*
X418148Y373766D01*
X418095Y373692D01*
X418035Y373622D01*
X418023Y373592D01*
X418004Y373566D01*
X417977Y373479D01*
X417943Y373394D01*
X417939Y373353D01*
X417932Y373331D01*
X417933Y373299D01*
X417925Y373228D01*
X417925Y343468D01*
X417032Y342575D01*
X395768Y342575D01*
X394875Y343468D01*
X394875Y399732D01*
X395768Y400625D01*
X417032Y400625D01*
X417925Y399732D01*
X417925Y381848D01*
X417936Y381778D01*
X417938Y381706D01*
X417956Y381657D01*
X417964Y381606D01*
X417998Y381542D01*
X418023Y381475D01*
X418055Y381434D01*
X418080Y381388D01*
X418132Y381339D01*
X418176Y381283D01*
X418220Y381255D01*
X418258Y381219D01*
X418323Y381189D01*
X418383Y381150D01*
X418434Y381137D01*
X418481Y381115D01*
X418552Y381107D01*
X418622Y381090D01*
X418674Y381094D01*
X418725Y381088D01*
X418796Y381103D01*
X418867Y381109D01*
X418915Y381129D01*
X418966Y381140D01*
X419027Y381177D01*
X419093Y381205D01*
X419149Y381250D01*
X419177Y381267D01*
X419192Y381284D01*
X419224Y381310D01*
X433393Y395479D01*
X438914Y395479D01*
X438934Y395482D01*
X438953Y395480D01*
X439055Y395502D01*
X439157Y395518D01*
X439174Y395528D01*
X439194Y395532D01*
X439283Y395585D01*
X439374Y395634D01*
X439388Y395648D01*
X439405Y395658D01*
X439472Y395737D01*
X439544Y395812D01*
X439552Y395830D01*
X439565Y395845D01*
X439604Y395941D01*
X439647Y396035D01*
X439649Y396055D01*
X439657Y396073D01*
X439675Y396240D01*
X439675Y401832D01*
X440568Y402725D01*
X446419Y402725D01*
X446510Y402739D01*
X446600Y402747D01*
X446630Y402759D01*
X446662Y402764D01*
X446743Y402807D01*
X446827Y402843D01*
X446859Y402869D01*
X446880Y402880D01*
X446902Y402903D01*
X446958Y402948D01*
X454729Y410719D01*
X457461Y410719D01*
X457552Y410733D01*
X457642Y410741D01*
X457672Y410753D01*
X457704Y410758D01*
X457785Y410801D01*
X457869Y410837D01*
X457901Y410863D01*
X457922Y410874D01*
X457944Y410897D01*
X458000Y410942D01*
X473240Y426182D01*
X473282Y426240D01*
X473331Y426292D01*
X473353Y426339D01*
X473383Y426381D01*
X473404Y426450D01*
X473435Y426515D01*
X473440Y426567D01*
X473456Y426617D01*
X473454Y426688D01*
X473462Y426759D01*
X473451Y426810D01*
X473449Y426862D01*
X473425Y426930D01*
X473410Y427000D01*
X473383Y427045D01*
X473365Y427093D01*
X473320Y427149D01*
X473283Y427211D01*
X473244Y427245D01*
X473211Y427285D01*
X473151Y427324D01*
X473096Y427371D01*
X473048Y427390D01*
X473004Y427418D01*
X472935Y427436D01*
X472868Y427463D01*
X472797Y427471D01*
X472766Y427479D01*
X472742Y427477D01*
X472702Y427481D01*
X454729Y427481D01*
X447332Y434878D01*
X446958Y435252D01*
X446884Y435305D01*
X446814Y435365D01*
X446784Y435377D01*
X446758Y435396D01*
X446671Y435423D01*
X446586Y435457D01*
X446545Y435461D01*
X446523Y435468D01*
X446491Y435467D01*
X446420Y435475D01*
X440568Y435475D01*
X439675Y436368D01*
X439675Y441960D01*
X439672Y441980D01*
X439674Y441999D01*
X439652Y442101D01*
X439636Y442203D01*
X439626Y442220D01*
X439622Y442240D01*
X439569Y442329D01*
X439520Y442420D01*
X439506Y442434D01*
X439496Y442451D01*
X439417Y442518D01*
X439342Y442590D01*
X439324Y442598D01*
X439309Y442611D01*
X439213Y442650D01*
X439119Y442693D01*
X439099Y442695D01*
X439081Y442703D01*
X438914Y442721D01*
X433393Y442721D01*
X419224Y456890D01*
X419166Y456932D01*
X419114Y456981D01*
X419067Y457003D01*
X419025Y457033D01*
X418956Y457054D01*
X418891Y457085D01*
X418839Y457090D01*
X418789Y457106D01*
X418718Y457104D01*
X418647Y457112D01*
X418596Y457101D01*
X418544Y457099D01*
X418476Y457075D01*
X418406Y457060D01*
X418361Y457033D01*
X418313Y457015D01*
X418257Y456970D01*
X418195Y456933D01*
X418161Y456894D01*
X418121Y456861D01*
X418082Y456801D01*
X418035Y456746D01*
X418016Y456698D01*
X417988Y456654D01*
X417970Y456585D01*
X417943Y456518D01*
X417935Y456447D01*
X417927Y456416D01*
X417929Y456392D01*
X417925Y456352D01*
X417925Y438468D01*
X417032Y437575D01*
X395768Y437575D01*
X394875Y438468D01*
X394875Y494732D01*
X395768Y495625D01*
X417032Y495625D01*
X417925Y494732D01*
X417925Y464973D01*
X417939Y464882D01*
X417947Y464792D01*
X417959Y464762D01*
X417964Y464730D01*
X418007Y464649D01*
X418043Y464565D01*
X418069Y464533D01*
X418080Y464512D01*
X418103Y464490D01*
X418148Y464434D01*
X435064Y447518D01*
X435138Y447465D01*
X435208Y447405D01*
X435238Y447393D01*
X435264Y447374D01*
X435351Y447347D01*
X435436Y447313D01*
X435477Y447309D01*
X435499Y447302D01*
X435531Y447303D01*
X435603Y447295D01*
X438914Y447295D01*
X438934Y447298D01*
X438953Y447296D01*
X439055Y447318D01*
X439157Y447334D01*
X439174Y447344D01*
X439194Y447348D01*
X439283Y447401D01*
X439374Y447450D01*
X439388Y447464D01*
X439405Y447474D01*
X439472Y447553D01*
X439544Y447628D01*
X439552Y447646D01*
X439565Y447661D01*
X439604Y447757D01*
X439647Y447851D01*
X439649Y447871D01*
X439657Y447889D01*
X439675Y448056D01*
X439675Y452632D01*
X440568Y453525D01*
X454832Y453525D01*
X455725Y452632D01*
X455725Y436368D01*
X454785Y435429D01*
X454734Y435402D01*
X454667Y435377D01*
X454626Y435345D01*
X454580Y435320D01*
X454531Y435268D01*
X454475Y435224D01*
X454447Y435180D01*
X454411Y435142D01*
X454381Y435077D01*
X454342Y435017D01*
X454329Y434966D01*
X454307Y434919D01*
X454299Y434848D01*
X454282Y434778D01*
X454286Y434726D01*
X454280Y434675D01*
X454295Y434604D01*
X454301Y434533D01*
X454321Y434485D01*
X454332Y434434D01*
X454369Y434373D01*
X454397Y434307D01*
X454442Y434251D01*
X454459Y434223D01*
X454476Y434208D01*
X454502Y434176D01*
X456400Y432278D01*
X456474Y432225D01*
X456544Y432165D01*
X456574Y432153D01*
X456600Y432134D01*
X456687Y432107D01*
X456772Y432073D01*
X456813Y432069D01*
X456835Y432062D01*
X456867Y432063D01*
X456939Y432055D01*
X474225Y432055D01*
X474316Y432069D01*
X474406Y432077D01*
X474436Y432089D01*
X474468Y432094D01*
X474549Y432137D01*
X474633Y432173D01*
X474665Y432199D01*
X474686Y432210D01*
X474708Y432233D01*
X474764Y432278D01*
X479155Y436668D01*
X483552Y441066D01*
X483605Y441140D01*
X483665Y441210D01*
X483677Y441240D01*
X483696Y441266D01*
X483723Y441353D01*
X483757Y441438D01*
X483761Y441479D01*
X483768Y441501D01*
X483767Y441533D01*
X483775Y441604D01*
X483775Y441932D01*
X484605Y442762D01*
X484617Y442778D01*
X484633Y442790D01*
X484689Y442878D01*
X484749Y442961D01*
X484755Y442980D01*
X484766Y442997D01*
X484791Y443098D01*
X484821Y443197D01*
X484821Y443216D01*
X484826Y443236D01*
X484818Y443339D01*
X484815Y443442D01*
X484808Y443461D01*
X484807Y443481D01*
X484766Y443576D01*
X484731Y443673D01*
X484718Y443689D01*
X484710Y443707D01*
X484605Y443838D01*
X483775Y444668D01*
X483775Y446888D01*
X483761Y446978D01*
X483753Y447069D01*
X483741Y447098D01*
X483736Y447130D01*
X483693Y447211D01*
X483657Y447295D01*
X483631Y447327D01*
X483620Y447348D01*
X483597Y447370D01*
X483552Y447426D01*
X483138Y447840D01*
X480420Y450559D01*
X476249Y454729D01*
X476249Y475488D01*
X476246Y475508D01*
X476248Y475527D01*
X476226Y475629D01*
X476210Y475731D01*
X476200Y475748D01*
X476196Y475768D01*
X476143Y475857D01*
X476094Y475948D01*
X476080Y475962D01*
X476070Y475979D01*
X475991Y476046D01*
X475916Y476118D01*
X475898Y476126D01*
X475883Y476139D01*
X475787Y476178D01*
X475693Y476221D01*
X475673Y476223D01*
X475655Y476231D01*
X475488Y476249D01*
X468445Y476249D01*
X461556Y483138D01*
X454952Y489742D01*
X454878Y489795D01*
X454808Y489855D01*
X454778Y489867D01*
X454752Y489886D01*
X454665Y489913D01*
X454580Y489947D01*
X454539Y489951D01*
X454517Y489958D01*
X454485Y489957D01*
X454413Y489965D01*
X441013Y489965D01*
X433577Y497401D01*
X433577Y507753D01*
X433563Y507844D01*
X433555Y507934D01*
X433543Y507964D01*
X433538Y507996D01*
X433495Y508077D01*
X433459Y508161D01*
X433433Y508193D01*
X433422Y508214D01*
X433399Y508236D01*
X433354Y508292D01*
X427520Y514126D01*
X427446Y514179D01*
X427376Y514239D01*
X427346Y514251D01*
X427320Y514270D01*
X427233Y514297D01*
X427148Y514331D01*
X427107Y514335D01*
X427085Y514342D01*
X427053Y514341D01*
X426981Y514349D01*
X412057Y514349D01*
X405168Y521238D01*
X379354Y547052D01*
X379280Y547105D01*
X379210Y547165D01*
X379180Y547177D01*
X379154Y547196D01*
X379067Y547223D01*
X378982Y547257D01*
X378941Y547261D01*
X378919Y547268D01*
X378887Y547267D01*
X378815Y547275D01*
X330768Y547275D01*
X329875Y548168D01*
X329875Y569432D01*
X330768Y570325D01*
X387032Y570325D01*
X387925Y569432D01*
X387925Y548168D01*
X386853Y547097D01*
X386842Y547081D01*
X386826Y547068D01*
X386770Y546981D01*
X386710Y546897D01*
X386704Y546878D01*
X386693Y546862D01*
X386668Y546761D01*
X386637Y546662D01*
X386638Y546642D01*
X386633Y546623D01*
X386641Y546520D01*
X386644Y546416D01*
X386651Y546398D01*
X386652Y546378D01*
X386693Y546283D01*
X386728Y546185D01*
X386741Y546170D01*
X386749Y546152D01*
X386853Y546021D01*
X413728Y519146D01*
X413802Y519093D01*
X413872Y519033D01*
X413902Y519021D01*
X413928Y519002D01*
X414015Y518975D01*
X414100Y518941D01*
X414141Y518937D01*
X414163Y518930D01*
X414195Y518931D01*
X414267Y518923D01*
X429191Y518923D01*
X438151Y509963D01*
X438151Y499611D01*
X438165Y499520D01*
X438173Y499430D01*
X438185Y499400D01*
X438190Y499368D01*
X438233Y499287D01*
X438269Y499203D01*
X438295Y499171D01*
X438306Y499150D01*
X438329Y499128D01*
X438374Y499072D01*
X442684Y494762D01*
X442758Y494709D01*
X442828Y494649D01*
X442858Y494637D01*
X442884Y494618D01*
X442971Y494591D01*
X443056Y494557D01*
X443097Y494553D01*
X443119Y494546D01*
X443151Y494547D01*
X443223Y494539D01*
X456623Y494539D01*
X470116Y481046D01*
X470190Y480993D01*
X470260Y480933D01*
X470290Y480921D01*
X470316Y480902D01*
X470403Y480875D01*
X470488Y480841D01*
X470529Y480837D01*
X470551Y480830D01*
X470583Y480831D01*
X470655Y480823D01*
X475488Y480823D01*
X475508Y480826D01*
X475527Y480824D01*
X475629Y480846D01*
X475731Y480862D01*
X475748Y480872D01*
X475768Y480876D01*
X475857Y480929D01*
X475948Y480978D01*
X475962Y480992D01*
X475979Y481002D01*
X476046Y481081D01*
X476118Y481156D01*
X476126Y481174D01*
X476139Y481189D01*
X476178Y481285D01*
X476221Y481379D01*
X476223Y481399D01*
X476231Y481417D01*
X476249Y481584D01*
X476249Y498214D01*
X476246Y498234D01*
X476248Y498253D01*
X476226Y498355D01*
X476210Y498457D01*
X476200Y498474D01*
X476196Y498494D01*
X476143Y498583D01*
X476094Y498674D01*
X476080Y498688D01*
X476070Y498705D01*
X475991Y498772D01*
X475916Y498844D01*
X475898Y498852D01*
X475883Y498865D01*
X475787Y498904D01*
X475693Y498947D01*
X475673Y498949D01*
X475655Y498957D01*
X475488Y498975D01*
X472268Y498975D01*
X471375Y499868D01*
X471375Y516132D01*
X472268Y517025D01*
X486532Y517025D01*
X487425Y516132D01*
X487425Y499868D01*
X486532Y498975D01*
X481584Y498975D01*
X481564Y498972D01*
X481545Y498974D01*
X481443Y498952D01*
X481341Y498936D01*
X481324Y498926D01*
X481304Y498922D01*
X481215Y498869D01*
X481124Y498820D01*
X481110Y498806D01*
X481093Y498796D01*
X481026Y498717D01*
X480954Y498642D01*
X480946Y498624D01*
X480933Y498609D01*
X480894Y498513D01*
X480851Y498419D01*
X480849Y498399D01*
X480841Y498381D01*
X480823Y498214D01*
X480823Y456939D01*
X480837Y456848D01*
G37*
%LPD*%
%LPC*%
G36*
X218782Y429033D02*
X218782Y429033D01*
X215673Y432142D01*
X215673Y436538D01*
X218470Y439335D01*
X218523Y439409D01*
X218583Y439479D01*
X218595Y439509D01*
X218614Y439535D01*
X218641Y439622D01*
X218675Y439707D01*
X218679Y439748D01*
X218686Y439770D01*
X218685Y439802D01*
X218693Y439873D01*
X218693Y445269D01*
X218679Y445360D01*
X218671Y445450D01*
X218659Y445480D01*
X218654Y445512D01*
X218611Y445593D01*
X218575Y445677D01*
X218549Y445709D01*
X218538Y445730D01*
X218515Y445752D01*
X218470Y445808D01*
X191038Y473240D01*
X190980Y473282D01*
X190928Y473331D01*
X190881Y473353D01*
X190839Y473383D01*
X190770Y473404D01*
X190705Y473435D01*
X190653Y473440D01*
X190603Y473456D01*
X190532Y473454D01*
X190461Y473462D01*
X190410Y473451D01*
X190358Y473449D01*
X190290Y473425D01*
X190220Y473410D01*
X190175Y473383D01*
X190127Y473365D01*
X190071Y473320D01*
X190009Y473283D01*
X189975Y473244D01*
X189935Y473211D01*
X189896Y473151D01*
X189849Y473096D01*
X189830Y473048D01*
X189802Y473004D01*
X189784Y472935D01*
X189757Y472868D01*
X189749Y472797D01*
X189741Y472766D01*
X189743Y472742D01*
X189739Y472702D01*
X189739Y454873D01*
X188347Y451512D01*
X185774Y448939D01*
X182413Y447547D01*
X178775Y447547D01*
X175414Y448939D01*
X172841Y451512D01*
X171449Y454873D01*
X171449Y473751D01*
X172841Y477112D01*
X175414Y479685D01*
X178775Y481077D01*
X181364Y481077D01*
X181434Y481088D01*
X181506Y481090D01*
X181555Y481108D01*
X181606Y481116D01*
X181670Y481150D01*
X181737Y481175D01*
X181778Y481207D01*
X181824Y481232D01*
X181873Y481284D01*
X181929Y481328D01*
X181957Y481372D01*
X181993Y481410D01*
X182023Y481475D01*
X182062Y481535D01*
X182075Y481586D01*
X182097Y481633D01*
X182105Y481704D01*
X182122Y481774D01*
X182118Y481826D01*
X182124Y481877D01*
X182109Y481948D01*
X182103Y482019D01*
X182083Y482067D01*
X182072Y482118D01*
X182035Y482179D01*
X182007Y482245D01*
X181962Y482301D01*
X181945Y482329D01*
X181928Y482344D01*
X181902Y482376D01*
X179069Y485209D01*
X179069Y485514D01*
X179066Y485534D01*
X179068Y485553D01*
X179046Y485655D01*
X179030Y485757D01*
X179020Y485774D01*
X179016Y485794D01*
X178963Y485883D01*
X178914Y485974D01*
X178900Y485988D01*
X178890Y486005D01*
X178811Y486072D01*
X178736Y486144D01*
X178718Y486152D01*
X178703Y486165D01*
X178607Y486204D01*
X178513Y486247D01*
X178493Y486249D01*
X178475Y486257D01*
X178308Y486275D01*
X173868Y486275D01*
X172975Y487168D01*
X172975Y503432D01*
X173868Y504325D01*
X188132Y504325D01*
X189025Y503432D01*
X189025Y487168D01*
X188132Y486275D01*
X186308Y486275D01*
X186238Y486264D01*
X186166Y486262D01*
X186117Y486244D01*
X186066Y486236D01*
X186002Y486202D01*
X185935Y486177D01*
X185894Y486145D01*
X185848Y486120D01*
X185799Y486069D01*
X185743Y486024D01*
X185715Y485980D01*
X185679Y485942D01*
X185649Y485877D01*
X185610Y485817D01*
X185597Y485766D01*
X185575Y485719D01*
X185567Y485648D01*
X185550Y485578D01*
X185554Y485526D01*
X185548Y485475D01*
X185563Y485404D01*
X185569Y485333D01*
X185589Y485285D01*
X185600Y485234D01*
X185637Y485173D01*
X185665Y485107D01*
X185710Y485051D01*
X185727Y485023D01*
X185744Y485008D01*
X185770Y484976D01*
X214346Y456400D01*
X214404Y456358D01*
X214456Y456309D01*
X214503Y456287D01*
X214545Y456257D01*
X214614Y456236D01*
X214679Y456205D01*
X214731Y456200D01*
X214781Y456184D01*
X214852Y456186D01*
X214923Y456178D01*
X214974Y456189D01*
X215026Y456191D01*
X215094Y456215D01*
X215164Y456230D01*
X215208Y456257D01*
X215257Y456275D01*
X215313Y456320D01*
X215375Y456357D01*
X215409Y456396D01*
X215449Y456429D01*
X215488Y456489D01*
X215535Y456544D01*
X215554Y456592D01*
X215582Y456636D01*
X215600Y456705D01*
X215627Y456772D01*
X215635Y456843D01*
X215643Y456874D01*
X215641Y456898D01*
X215645Y456938D01*
X215645Y462789D01*
X224283Y462789D01*
X224283Y446646D01*
X224147Y446667D01*
X224068Y446667D01*
X223989Y446676D01*
X223945Y446666D01*
X223901Y446666D01*
X223826Y446640D01*
X223748Y446623D01*
X223710Y446601D01*
X223668Y446586D01*
X223605Y446538D01*
X223537Y446497D01*
X223508Y446464D01*
X223473Y446437D01*
X223429Y446371D01*
X223377Y446310D01*
X223361Y446269D01*
X223336Y446233D01*
X223315Y446156D01*
X223285Y446082D01*
X223279Y446024D01*
X223271Y445995D01*
X223273Y445968D01*
X223267Y445915D01*
X223267Y439873D01*
X223281Y439783D01*
X223289Y439692D01*
X223301Y439663D01*
X223306Y439631D01*
X223349Y439550D01*
X223385Y439466D01*
X223411Y439434D01*
X223422Y439413D01*
X223445Y439391D01*
X223490Y439335D01*
X226287Y436538D01*
X226287Y432142D01*
X223178Y429033D01*
X218782Y429033D01*
G37*
%LPD*%
%LPC*%
G36*
X243668Y498975D02*
X243668Y498975D01*
X242775Y499868D01*
X242775Y516132D01*
X243668Y517025D01*
X245364Y517025D01*
X245384Y517028D01*
X245403Y517026D01*
X245505Y517048D01*
X245607Y517064D01*
X245624Y517074D01*
X245644Y517078D01*
X245733Y517131D01*
X245824Y517180D01*
X245838Y517194D01*
X245855Y517204D01*
X245922Y517283D01*
X245994Y517358D01*
X246002Y517376D01*
X246015Y517391D01*
X246054Y517487D01*
X246097Y517581D01*
X246099Y517601D01*
X246107Y517619D01*
X246125Y517786D01*
X246125Y552014D01*
X246122Y552034D01*
X246124Y552053D01*
X246102Y552155D01*
X246086Y552257D01*
X246076Y552274D01*
X246072Y552294D01*
X246019Y552383D01*
X245970Y552474D01*
X245956Y552488D01*
X245946Y552505D01*
X245867Y552572D01*
X245792Y552644D01*
X245774Y552652D01*
X245759Y552665D01*
X245663Y552704D01*
X245569Y552747D01*
X245549Y552749D01*
X245531Y552757D01*
X245364Y552775D01*
X243668Y552775D01*
X242775Y553668D01*
X242775Y563932D01*
X243668Y564825D01*
X251932Y564825D01*
X252825Y563932D01*
X252825Y553668D01*
X251932Y552775D01*
X251460Y552775D01*
X251440Y552772D01*
X251421Y552774D01*
X251319Y552752D01*
X251217Y552736D01*
X251200Y552726D01*
X251180Y552722D01*
X251091Y552669D01*
X251000Y552620D01*
X250986Y552606D01*
X250969Y552596D01*
X250902Y552517D01*
X250830Y552442D01*
X250822Y552424D01*
X250809Y552409D01*
X250770Y552313D01*
X250727Y552219D01*
X250725Y552199D01*
X250717Y552181D01*
X250699Y552014D01*
X250699Y517786D01*
X250702Y517766D01*
X250700Y517747D01*
X250722Y517645D01*
X250738Y517543D01*
X250748Y517526D01*
X250752Y517506D01*
X250805Y517417D01*
X250854Y517326D01*
X250868Y517312D01*
X250878Y517295D01*
X250957Y517228D01*
X251032Y517156D01*
X251050Y517148D01*
X251065Y517135D01*
X251161Y517096D01*
X251255Y517053D01*
X251275Y517051D01*
X251293Y517043D01*
X251460Y517025D01*
X257932Y517025D01*
X258825Y516132D01*
X258825Y510540D01*
X258828Y510521D01*
X258826Y510502D01*
X258826Y510501D01*
X258848Y510399D01*
X258864Y510297D01*
X258874Y510280D01*
X258878Y510260D01*
X258931Y510171D01*
X258980Y510080D01*
X258994Y510066D01*
X259004Y510049D01*
X259083Y509982D01*
X259158Y509910D01*
X259176Y509902D01*
X259191Y509889D01*
X259287Y509850D01*
X259381Y509807D01*
X259401Y509805D01*
X259419Y509797D01*
X259586Y509779D01*
X358703Y509779D01*
X358793Y509793D01*
X358884Y509801D01*
X358913Y509813D01*
X358945Y509818D01*
X359026Y509861D01*
X359110Y509897D01*
X359142Y509923D01*
X359163Y509934D01*
X359164Y509935D01*
X359185Y509957D01*
X359241Y510002D01*
X362038Y512799D01*
X366434Y512799D01*
X369543Y509690D01*
X369543Y505294D01*
X366434Y502185D01*
X362038Y502185D01*
X359241Y504982D01*
X359167Y505035D01*
X359097Y505095D01*
X359067Y505107D01*
X359041Y505126D01*
X358954Y505153D01*
X358869Y505187D01*
X358828Y505191D01*
X358806Y505198D01*
X358774Y505197D01*
X358703Y505205D01*
X259586Y505205D01*
X259566Y505202D01*
X259547Y505204D01*
X259445Y505182D01*
X259343Y505166D01*
X259326Y505156D01*
X259306Y505152D01*
X259217Y505099D01*
X259126Y505050D01*
X259112Y505036D01*
X259095Y505026D01*
X259028Y504947D01*
X258956Y504872D01*
X258948Y504854D01*
X258935Y504839D01*
X258896Y504743D01*
X258853Y504649D01*
X258851Y504629D01*
X258843Y504611D01*
X258825Y504444D01*
X258825Y499868D01*
X257932Y498975D01*
X243668Y498975D01*
G37*
%LPD*%
%LPC*%
G36*
X201482Y543051D02*
X201482Y543051D01*
X198308Y544366D01*
X195878Y546796D01*
X194563Y549970D01*
X194563Y567630D01*
X195878Y570804D01*
X198308Y573234D01*
X201482Y574549D01*
X204918Y574549D01*
X208092Y573234D01*
X210522Y570804D01*
X211837Y567630D01*
X211837Y562356D01*
X211840Y562336D01*
X211838Y562317D01*
X211860Y562215D01*
X211876Y562113D01*
X211886Y562096D01*
X211890Y562076D01*
X211943Y561987D01*
X211992Y561896D01*
X212006Y561882D01*
X212016Y561865D01*
X212095Y561798D01*
X212170Y561726D01*
X212188Y561718D01*
X212203Y561705D01*
X212299Y561666D01*
X212393Y561623D01*
X212413Y561621D01*
X212431Y561613D01*
X212598Y561595D01*
X229014Y561595D01*
X229034Y561598D01*
X229053Y561596D01*
X229155Y561618D01*
X229257Y561634D01*
X229274Y561644D01*
X229294Y561648D01*
X229383Y561701D01*
X229474Y561750D01*
X229488Y561764D01*
X229505Y561774D01*
X229572Y561853D01*
X229644Y561928D01*
X229652Y561946D01*
X229665Y561961D01*
X229704Y562057D01*
X229747Y562151D01*
X229749Y562171D01*
X229757Y562189D01*
X229775Y562356D01*
X229775Y563932D01*
X230668Y564825D01*
X238932Y564825D01*
X239825Y563932D01*
X239825Y553668D01*
X238932Y552775D01*
X230668Y552775D01*
X229775Y553668D01*
X229775Y556260D01*
X229772Y556280D01*
X229774Y556299D01*
X229752Y556401D01*
X229736Y556503D01*
X229726Y556520D01*
X229722Y556540D01*
X229669Y556629D01*
X229620Y556720D01*
X229606Y556734D01*
X229596Y556751D01*
X229517Y556818D01*
X229442Y556890D01*
X229424Y556898D01*
X229409Y556911D01*
X229313Y556950D01*
X229219Y556993D01*
X229199Y556995D01*
X229181Y557003D01*
X229014Y557021D01*
X212598Y557021D01*
X212578Y557018D01*
X212559Y557020D01*
X212457Y556998D01*
X212355Y556982D01*
X212338Y556972D01*
X212318Y556968D01*
X212229Y556915D01*
X212138Y556866D01*
X212124Y556852D01*
X212107Y556842D01*
X212040Y556763D01*
X211968Y556688D01*
X211960Y556670D01*
X211947Y556655D01*
X211908Y556559D01*
X211865Y556465D01*
X211863Y556445D01*
X211855Y556427D01*
X211837Y556260D01*
X211837Y549970D01*
X210522Y546796D01*
X208092Y544366D01*
X204918Y543051D01*
X201482Y543051D01*
G37*
%LPD*%
%LPC*%
G36*
X790661Y422455D02*
X790661Y422455D01*
X787300Y423847D01*
X784727Y426420D01*
X783335Y429781D01*
X783335Y433419D01*
X784727Y436780D01*
X787300Y439353D01*
X790661Y440745D01*
X809539Y440745D01*
X812900Y439353D01*
X815473Y436780D01*
X816865Y433419D01*
X816865Y429781D01*
X815473Y426420D01*
X812900Y423847D01*
X809539Y422455D01*
X790661Y422455D01*
G37*
%LPD*%
%LPC*%
G36*
X790661Y447455D02*
X790661Y447455D01*
X787300Y448847D01*
X784727Y451420D01*
X783335Y454781D01*
X783335Y458419D01*
X784727Y461780D01*
X787300Y464353D01*
X790661Y465745D01*
X809539Y465745D01*
X812900Y464353D01*
X815473Y461780D01*
X816865Y458419D01*
X816865Y454781D01*
X815473Y451420D01*
X812900Y448847D01*
X809539Y447455D01*
X790661Y447455D01*
G37*
%LPD*%
%LPC*%
G36*
X790661Y522455D02*
X790661Y522455D01*
X787300Y523847D01*
X784727Y526420D01*
X783335Y529781D01*
X783335Y533419D01*
X784727Y536780D01*
X787300Y539353D01*
X790661Y540745D01*
X809539Y540745D01*
X812900Y539353D01*
X815473Y536780D01*
X816865Y533419D01*
X816865Y529781D01*
X815473Y526420D01*
X812900Y523847D01*
X809539Y522455D01*
X790661Y522455D01*
G37*
%LPD*%
%LPC*%
G36*
X790661Y472455D02*
X790661Y472455D01*
X787300Y473847D01*
X784727Y476420D01*
X783335Y479781D01*
X783335Y483419D01*
X784727Y486780D01*
X787300Y489353D01*
X790661Y490745D01*
X809539Y490745D01*
X812900Y489353D01*
X815473Y486780D01*
X816865Y483419D01*
X816865Y479781D01*
X815473Y476420D01*
X812900Y473847D01*
X809539Y472455D01*
X790661Y472455D01*
G37*
%LPD*%
%LPC*%
G36*
X178775Y382523D02*
X178775Y382523D01*
X175414Y383915D01*
X172841Y386488D01*
X171449Y389849D01*
X171449Y408727D01*
X172841Y412088D01*
X175414Y414661D01*
X178775Y416053D01*
X182413Y416053D01*
X185774Y414661D01*
X188347Y412088D01*
X189739Y408727D01*
X189739Y389849D01*
X188347Y386488D01*
X185774Y383915D01*
X182413Y382523D01*
X178775Y382523D01*
G37*
%LPD*%
G36*
X513940Y468645D02*
X513940Y468645D01*
X514030Y468653D01*
X514060Y468665D01*
X514092Y468670D01*
X514173Y468713D01*
X514257Y468749D01*
X514289Y468775D01*
X514310Y468786D01*
X514332Y468809D01*
X514388Y468854D01*
X518737Y473203D01*
X595014Y473203D01*
X595034Y473206D01*
X595053Y473204D01*
X595155Y473226D01*
X595257Y473242D01*
X595274Y473252D01*
X595294Y473256D01*
X595383Y473309D01*
X595474Y473358D01*
X595488Y473372D01*
X595505Y473382D01*
X595572Y473461D01*
X595644Y473536D01*
X595652Y473554D01*
X595665Y473569D01*
X595704Y473665D01*
X595747Y473759D01*
X595749Y473779D01*
X595757Y473797D01*
X595771Y473928D01*
X596668Y474825D01*
X605192Y474825D01*
X605262Y474836D01*
X605334Y474838D01*
X605383Y474856D01*
X605434Y474864D01*
X605498Y474898D01*
X605565Y474923D01*
X605606Y474955D01*
X605652Y474980D01*
X605701Y475032D01*
X605757Y475076D01*
X605785Y475120D01*
X605821Y475158D01*
X605851Y475223D01*
X605890Y475283D01*
X605903Y475334D01*
X605925Y475381D01*
X605933Y475452D01*
X605950Y475522D01*
X605946Y475574D01*
X605952Y475625D01*
X605937Y475696D01*
X605931Y475767D01*
X605911Y475815D01*
X605900Y475866D01*
X605863Y475927D01*
X605835Y475993D01*
X605790Y476049D01*
X605773Y476077D01*
X605756Y476092D01*
X605730Y476124D01*
X601256Y480598D01*
X601182Y480651D01*
X601112Y480711D01*
X601082Y480723D01*
X601056Y480742D01*
X600969Y480769D01*
X600884Y480803D01*
X600843Y480807D01*
X600821Y480814D01*
X600789Y480813D01*
X600717Y480821D01*
X594586Y480821D01*
X594566Y480818D01*
X594547Y480820D01*
X594445Y480798D01*
X594343Y480782D01*
X594326Y480772D01*
X594306Y480768D01*
X594217Y480715D01*
X594126Y480666D01*
X594112Y480652D01*
X594095Y480642D01*
X594028Y480563D01*
X593956Y480488D01*
X593948Y480470D01*
X593935Y480455D01*
X593896Y480359D01*
X593853Y480265D01*
X593851Y480245D01*
X593843Y480227D01*
X593825Y480060D01*
X593825Y477668D01*
X592932Y476775D01*
X587668Y476775D01*
X586838Y477605D01*
X586822Y477617D01*
X586810Y477633D01*
X586735Y477680D01*
X586716Y477697D01*
X586704Y477702D01*
X586639Y477749D01*
X586620Y477755D01*
X586603Y477766D01*
X586502Y477791D01*
X586403Y477821D01*
X586384Y477821D01*
X586364Y477826D01*
X586261Y477818D01*
X586158Y477815D01*
X586139Y477808D01*
X586119Y477807D01*
X586024Y477766D01*
X585927Y477731D01*
X585911Y477718D01*
X585893Y477710D01*
X585824Y477655D01*
X585819Y477653D01*
X585813Y477647D01*
X585762Y477605D01*
X584932Y476775D01*
X579668Y476775D01*
X578838Y477605D01*
X578822Y477617D01*
X578810Y477633D01*
X578735Y477681D01*
X578716Y477697D01*
X578704Y477702D01*
X578639Y477749D01*
X578620Y477755D01*
X578603Y477766D01*
X578502Y477791D01*
X578403Y477821D01*
X578384Y477821D01*
X578364Y477826D01*
X578261Y477818D01*
X578158Y477815D01*
X578139Y477808D01*
X578119Y477807D01*
X578024Y477766D01*
X577927Y477731D01*
X577911Y477718D01*
X577893Y477710D01*
X577824Y477656D01*
X577819Y477653D01*
X577813Y477647D01*
X577762Y477605D01*
X576932Y476775D01*
X571668Y476775D01*
X570838Y477605D01*
X570822Y477617D01*
X570810Y477633D01*
X570735Y477681D01*
X570716Y477697D01*
X570704Y477702D01*
X570639Y477749D01*
X570620Y477755D01*
X570603Y477766D01*
X570502Y477791D01*
X570403Y477821D01*
X570384Y477821D01*
X570364Y477826D01*
X570261Y477818D01*
X570158Y477815D01*
X570139Y477808D01*
X570119Y477807D01*
X570024Y477766D01*
X569927Y477731D01*
X569911Y477718D01*
X569893Y477710D01*
X569824Y477656D01*
X569819Y477653D01*
X569813Y477647D01*
X569762Y477605D01*
X568932Y476775D01*
X563668Y476775D01*
X562838Y477605D01*
X562822Y477617D01*
X562810Y477633D01*
X562735Y477681D01*
X562716Y477697D01*
X562704Y477702D01*
X562639Y477749D01*
X562620Y477755D01*
X562603Y477766D01*
X562502Y477791D01*
X562403Y477821D01*
X562384Y477821D01*
X562364Y477826D01*
X562261Y477818D01*
X562158Y477815D01*
X562139Y477808D01*
X562119Y477807D01*
X562024Y477766D01*
X561927Y477731D01*
X561911Y477718D01*
X561893Y477710D01*
X561824Y477656D01*
X561819Y477653D01*
X561813Y477647D01*
X561762Y477605D01*
X560932Y476775D01*
X555668Y476775D01*
X554838Y477605D01*
X554822Y477617D01*
X554810Y477633D01*
X554735Y477681D01*
X554716Y477697D01*
X554704Y477702D01*
X554639Y477749D01*
X554620Y477755D01*
X554603Y477766D01*
X554502Y477791D01*
X554403Y477821D01*
X554384Y477821D01*
X554364Y477826D01*
X554261Y477818D01*
X554158Y477815D01*
X554139Y477808D01*
X554119Y477807D01*
X554024Y477766D01*
X553927Y477731D01*
X553911Y477718D01*
X553893Y477710D01*
X553824Y477656D01*
X553819Y477653D01*
X553813Y477647D01*
X553762Y477605D01*
X552932Y476775D01*
X547668Y476775D01*
X546838Y477605D01*
X546822Y477617D01*
X546810Y477633D01*
X546735Y477681D01*
X546716Y477697D01*
X546704Y477702D01*
X546639Y477749D01*
X546620Y477755D01*
X546603Y477766D01*
X546502Y477791D01*
X546403Y477821D01*
X546384Y477821D01*
X546364Y477826D01*
X546261Y477818D01*
X546158Y477815D01*
X546139Y477808D01*
X546119Y477807D01*
X546024Y477766D01*
X545927Y477731D01*
X545911Y477718D01*
X545893Y477710D01*
X545824Y477656D01*
X545819Y477653D01*
X545813Y477647D01*
X545762Y477605D01*
X544932Y476775D01*
X539668Y476775D01*
X539536Y476907D01*
X539441Y476976D01*
X539344Y477047D01*
X539340Y477049D01*
X539337Y477051D01*
X539224Y477086D01*
X539110Y477122D01*
X539105Y477122D01*
X539102Y477123D01*
X538983Y477120D01*
X538864Y477118D01*
X538860Y477117D01*
X538856Y477117D01*
X538745Y477076D01*
X538632Y477037D01*
X538629Y477034D01*
X538625Y477033D01*
X538532Y476958D01*
X538438Y476885D01*
X538435Y476881D01*
X538433Y476879D01*
X538425Y476867D01*
X538339Y476750D01*
X538333Y476740D01*
X537860Y476267D01*
X537281Y475932D01*
X536634Y475759D01*
X535299Y475759D01*
X535299Y483062D01*
X535296Y483081D01*
X535298Y483101D01*
X535276Y483203D01*
X535260Y483305D01*
X535250Y483322D01*
X535246Y483342D01*
X535193Y483431D01*
X535144Y483522D01*
X535130Y483536D01*
X535120Y483553D01*
X535041Y483620D01*
X534966Y483691D01*
X534948Y483700D01*
X534933Y483713D01*
X534837Y483751D01*
X534743Y483795D01*
X534723Y483797D01*
X534705Y483805D01*
X534538Y483823D01*
X534062Y483823D01*
X534042Y483820D01*
X534022Y483822D01*
X533921Y483800D01*
X533819Y483783D01*
X533802Y483774D01*
X533782Y483770D01*
X533693Y483717D01*
X533602Y483668D01*
X533588Y483654D01*
X533571Y483644D01*
X533504Y483565D01*
X533432Y483490D01*
X533424Y483472D01*
X533411Y483457D01*
X533372Y483360D01*
X533329Y483267D01*
X533327Y483247D01*
X533319Y483229D01*
X533301Y483062D01*
X533301Y475759D01*
X531966Y475759D01*
X531319Y475932D01*
X530740Y476267D01*
X530267Y476740D01*
X530261Y476750D01*
X530186Y476841D01*
X530112Y476935D01*
X530108Y476937D01*
X530105Y476940D01*
X530006Y477003D01*
X529905Y477068D01*
X529901Y477069D01*
X529897Y477071D01*
X529782Y477099D01*
X529666Y477128D01*
X529662Y477127D01*
X529658Y477128D01*
X529539Y477118D01*
X529421Y477109D01*
X529417Y477107D01*
X529413Y477107D01*
X529305Y477059D01*
X529195Y477012D01*
X529191Y477009D01*
X529188Y477008D01*
X529178Y476999D01*
X529064Y476907D01*
X528932Y476775D01*
X523668Y476775D01*
X522838Y477605D01*
X522822Y477617D01*
X522810Y477633D01*
X522735Y477681D01*
X522716Y477697D01*
X522704Y477702D01*
X522639Y477749D01*
X522620Y477755D01*
X522603Y477766D01*
X522502Y477791D01*
X522403Y477821D01*
X522384Y477821D01*
X522364Y477826D01*
X522261Y477818D01*
X522158Y477815D01*
X522139Y477808D01*
X522119Y477807D01*
X522024Y477766D01*
X521927Y477731D01*
X521911Y477718D01*
X521893Y477710D01*
X521824Y477656D01*
X521819Y477653D01*
X521813Y477647D01*
X521762Y477605D01*
X520932Y476775D01*
X515668Y476775D01*
X515536Y476907D01*
X515441Y476976D01*
X515344Y477047D01*
X515340Y477049D01*
X515337Y477051D01*
X515224Y477086D01*
X515110Y477122D01*
X515105Y477122D01*
X515102Y477123D01*
X514983Y477120D01*
X514864Y477118D01*
X514860Y477117D01*
X514856Y477117D01*
X514745Y477076D01*
X514632Y477037D01*
X514629Y477034D01*
X514625Y477033D01*
X514532Y476958D01*
X514438Y476885D01*
X514435Y476881D01*
X514433Y476879D01*
X514425Y476867D01*
X514339Y476750D01*
X514333Y476740D01*
X513860Y476267D01*
X513281Y475932D01*
X512634Y475759D01*
X511299Y475759D01*
X511299Y482301D01*
X514014Y482301D01*
X514034Y482304D01*
X514053Y482302D01*
X514155Y482324D01*
X514257Y482340D01*
X514274Y482350D01*
X514294Y482354D01*
X514383Y482407D01*
X514474Y482456D01*
X514488Y482470D01*
X514505Y482480D01*
X514572Y482559D01*
X514644Y482634D01*
X514652Y482652D01*
X514665Y482667D01*
X514704Y482763D01*
X514747Y482857D01*
X514749Y482877D01*
X514757Y482895D01*
X514775Y483062D01*
X514775Y483538D01*
X514772Y483558D01*
X514774Y483577D01*
X514752Y483679D01*
X514736Y483781D01*
X514726Y483798D01*
X514722Y483818D01*
X514669Y483907D01*
X514620Y483998D01*
X514606Y484012D01*
X514596Y484029D01*
X514517Y484096D01*
X514442Y484168D01*
X514424Y484176D01*
X514409Y484189D01*
X514313Y484228D01*
X514219Y484271D01*
X514199Y484273D01*
X514181Y484281D01*
X514014Y484299D01*
X510538Y484299D01*
X510519Y484296D01*
X510499Y484298D01*
X510397Y484276D01*
X510295Y484260D01*
X510278Y484250D01*
X510258Y484246D01*
X510169Y484193D01*
X510078Y484144D01*
X510064Y484130D01*
X510047Y484120D01*
X509980Y484041D01*
X509909Y483966D01*
X509900Y483948D01*
X509887Y483933D01*
X509849Y483837D01*
X509824Y483784D01*
X509819Y483783D01*
X509802Y483774D01*
X509782Y483770D01*
X509693Y483717D01*
X509602Y483668D01*
X509588Y483654D01*
X509571Y483644D01*
X509504Y483565D01*
X509432Y483490D01*
X509424Y483472D01*
X509411Y483457D01*
X509372Y483360D01*
X509329Y483267D01*
X509327Y483247D01*
X509319Y483229D01*
X509301Y483062D01*
X509301Y475759D01*
X507966Y475759D01*
X507319Y475932D01*
X506740Y476267D01*
X506506Y476501D01*
X506448Y476542D01*
X506396Y476592D01*
X506349Y476614D01*
X506307Y476644D01*
X506238Y476665D01*
X506173Y476695D01*
X506121Y476701D01*
X506071Y476717D01*
X506000Y476715D01*
X505929Y476723D01*
X505878Y476711D01*
X505826Y476710D01*
X505758Y476686D01*
X505688Y476670D01*
X505643Y476644D01*
X505595Y476626D01*
X505539Y476581D01*
X505477Y476544D01*
X505443Y476505D01*
X505403Y476472D01*
X505364Y476412D01*
X505317Y476357D01*
X505298Y476309D01*
X505270Y476265D01*
X505252Y476196D01*
X505225Y476129D01*
X505217Y476058D01*
X505209Y476027D01*
X505211Y476003D01*
X505207Y475962D01*
X505207Y473702D01*
X505221Y473612D01*
X505229Y473521D01*
X505241Y473492D01*
X505246Y473460D01*
X505289Y473379D01*
X505325Y473295D01*
X505351Y473263D01*
X505362Y473242D01*
X505385Y473220D01*
X505430Y473164D01*
X509740Y468854D01*
X509814Y468801D01*
X509884Y468741D01*
X509914Y468729D01*
X509940Y468710D01*
X510027Y468683D01*
X510112Y468649D01*
X510153Y468645D01*
X510175Y468638D01*
X510207Y468639D01*
X510278Y468631D01*
X513849Y468631D01*
X513940Y468645D01*
G37*
%LPC*%
G36*
X227329Y400811D02*
X227329Y400811D01*
X227329Y416954D01*
X228185Y416819D01*
X229706Y416324D01*
X231131Y415598D01*
X232425Y414658D01*
X233556Y413527D01*
X234496Y412233D01*
X235222Y410808D01*
X235717Y409287D01*
X235967Y407708D01*
X235967Y400811D01*
X227329Y400811D01*
G37*
%LPD*%
%LPC*%
G36*
X801623Y358123D02*
X801623Y358123D01*
X801623Y366761D01*
X808520Y366761D01*
X810099Y366511D01*
X811620Y366016D01*
X813045Y365290D01*
X814339Y364350D01*
X815470Y363219D01*
X816410Y361925D01*
X817136Y360500D01*
X817631Y358979D01*
X817766Y358123D01*
X801623Y358123D01*
G37*
%LPD*%
%LPC*%
G36*
X801623Y508123D02*
X801623Y508123D01*
X801623Y516761D01*
X808520Y516761D01*
X810099Y516511D01*
X811620Y516016D01*
X813045Y515290D01*
X814339Y514350D01*
X815470Y513219D01*
X816410Y511925D01*
X817136Y510500D01*
X817631Y508979D01*
X817766Y508123D01*
X801623Y508123D01*
G37*
%LPD*%
%LPC*%
G36*
X801623Y408123D02*
X801623Y408123D01*
X801623Y416761D01*
X808520Y416761D01*
X810099Y416511D01*
X811620Y416016D01*
X813045Y415290D01*
X814339Y414350D01*
X815470Y413219D01*
X816410Y411925D01*
X817136Y410500D01*
X817631Y408979D01*
X817766Y408123D01*
X801623Y408123D01*
G37*
%LPD*%
%LPC*%
G36*
X782434Y508123D02*
X782434Y508123D01*
X782569Y508979D01*
X783064Y510500D01*
X783790Y511925D01*
X784730Y513219D01*
X785861Y514350D01*
X787155Y515290D01*
X788580Y516016D01*
X790101Y516511D01*
X791680Y516761D01*
X798577Y516761D01*
X798577Y508123D01*
X782434Y508123D01*
G37*
%LPD*%
%LPC*%
G36*
X782434Y408123D02*
X782434Y408123D01*
X782569Y408979D01*
X783064Y410500D01*
X783790Y411925D01*
X784730Y413219D01*
X785861Y414350D01*
X787155Y415290D01*
X788580Y416016D01*
X790101Y416511D01*
X791680Y416761D01*
X798577Y416761D01*
X798577Y408123D01*
X782434Y408123D01*
G37*
%LPD*%
%LPC*%
G36*
X782434Y358123D02*
X782434Y358123D01*
X782569Y358979D01*
X783064Y360500D01*
X783790Y361925D01*
X784730Y363219D01*
X785861Y364350D01*
X787155Y365290D01*
X788580Y366016D01*
X790101Y366511D01*
X791680Y366761D01*
X798577Y366761D01*
X798577Y358123D01*
X782434Y358123D01*
G37*
%LPD*%
%LPC*%
G36*
X227329Y462789D02*
X227329Y462789D01*
X235967Y462789D01*
X235967Y455892D01*
X235717Y454313D01*
X235222Y452792D01*
X234496Y451367D01*
X233556Y450073D01*
X232425Y448942D01*
X231131Y448002D01*
X229706Y447276D01*
X228185Y446781D01*
X227329Y446646D01*
X227329Y462789D01*
G37*
%LPD*%
%LPC*%
G36*
X227329Y397765D02*
X227329Y397765D01*
X235967Y397765D01*
X235967Y390868D01*
X235717Y389289D01*
X235222Y387768D01*
X234496Y386343D01*
X233556Y385049D01*
X232425Y383918D01*
X231131Y382978D01*
X229706Y382252D01*
X228185Y381757D01*
X227329Y381622D01*
X227329Y397765D01*
G37*
%LPD*%
%LPC*%
G36*
X801623Y346439D02*
X801623Y346439D01*
X801623Y355077D01*
X817766Y355077D01*
X817631Y354221D01*
X817136Y352700D01*
X816410Y351275D01*
X815470Y349981D01*
X814339Y348850D01*
X813045Y347910D01*
X811620Y347184D01*
X810099Y346689D01*
X808520Y346439D01*
X801623Y346439D01*
G37*
%LPD*%
%LPC*%
G36*
X215645Y465835D02*
X215645Y465835D01*
X215645Y472732D01*
X215895Y474311D01*
X216390Y475832D01*
X217116Y477257D01*
X218056Y478551D01*
X219187Y479682D01*
X220481Y480622D01*
X221906Y481348D01*
X223427Y481843D01*
X224283Y481978D01*
X224283Y465835D01*
X215645Y465835D01*
G37*
%LPD*%
%LPC*%
G36*
X801623Y396439D02*
X801623Y396439D01*
X801623Y405077D01*
X817766Y405077D01*
X817631Y404221D01*
X817136Y402700D01*
X816410Y401275D01*
X815470Y399981D01*
X814339Y398850D01*
X813045Y397910D01*
X811620Y397184D01*
X810099Y396689D01*
X808520Y396439D01*
X801623Y396439D01*
G37*
%LPD*%
%LPC*%
G36*
X215645Y400811D02*
X215645Y400811D01*
X215645Y407708D01*
X215895Y409287D01*
X216390Y410808D01*
X217116Y412233D01*
X218056Y413527D01*
X219187Y414658D01*
X220481Y415598D01*
X221906Y416324D01*
X223427Y416819D01*
X224283Y416954D01*
X224283Y400811D01*
X215645Y400811D01*
G37*
%LPD*%
%LPC*%
G36*
X801623Y496439D02*
X801623Y496439D01*
X801623Y505077D01*
X817766Y505077D01*
X817631Y504221D01*
X817136Y502700D01*
X816410Y501275D01*
X815470Y499981D01*
X814339Y498850D01*
X813045Y497910D01*
X811620Y497184D01*
X810099Y496689D01*
X808520Y496439D01*
X801623Y496439D01*
G37*
%LPD*%
%LPC*%
G36*
X791680Y396439D02*
X791680Y396439D01*
X790101Y396689D01*
X788580Y397184D01*
X787155Y397910D01*
X785861Y398850D01*
X784730Y399981D01*
X783790Y401275D01*
X783064Y402700D01*
X782569Y404221D01*
X782434Y405077D01*
X798577Y405077D01*
X798577Y396439D01*
X791680Y396439D01*
G37*
%LPD*%
%LPC*%
G36*
X791680Y346439D02*
X791680Y346439D01*
X790101Y346689D01*
X788580Y347184D01*
X787155Y347910D01*
X785861Y348850D01*
X784730Y349981D01*
X783790Y351275D01*
X783064Y352700D01*
X782569Y354221D01*
X782434Y355077D01*
X798577Y355077D01*
X798577Y346439D01*
X791680Y346439D01*
G37*
%LPD*%
%LPC*%
G36*
X223427Y381757D02*
X223427Y381757D01*
X221906Y382252D01*
X220481Y382978D01*
X219187Y383918D01*
X218056Y385049D01*
X217116Y386343D01*
X216390Y387768D01*
X215895Y389289D01*
X215645Y390868D01*
X215645Y397765D01*
X224283Y397765D01*
X224283Y381622D01*
X223427Y381757D01*
G37*
%LPD*%
%LPC*%
G36*
X791680Y496439D02*
X791680Y496439D01*
X790101Y496689D01*
X788580Y497184D01*
X787155Y497910D01*
X785861Y498850D01*
X784730Y499981D01*
X783790Y501275D01*
X783064Y502700D01*
X782569Y504221D01*
X782434Y505077D01*
X798577Y505077D01*
X798577Y496439D01*
X791680Y496439D01*
G37*
%LPD*%
%LPC*%
G36*
X179323Y560323D02*
X179323Y560323D01*
X179323Y575444D01*
X180060Y575327D01*
X181505Y574858D01*
X182859Y574168D01*
X184088Y573275D01*
X185163Y572200D01*
X186056Y570971D01*
X186746Y569617D01*
X187215Y568172D01*
X187453Y566672D01*
X187453Y560323D01*
X179323Y560323D01*
G37*
%LPD*%
%LPC*%
G36*
X179323Y557277D02*
X179323Y557277D01*
X187453Y557277D01*
X187453Y550928D01*
X187215Y549428D01*
X186746Y547983D01*
X186056Y546629D01*
X185163Y545400D01*
X184088Y544325D01*
X182859Y543432D01*
X181505Y542742D01*
X180060Y542273D01*
X179323Y542156D01*
X179323Y557277D01*
G37*
%LPD*%
%LPC*%
G36*
X168147Y560323D02*
X168147Y560323D01*
X168147Y566672D01*
X168385Y568172D01*
X168854Y569617D01*
X169544Y570971D01*
X170437Y572200D01*
X171512Y573275D01*
X172741Y574168D01*
X174095Y574858D01*
X175540Y575327D01*
X176277Y575444D01*
X176277Y560323D01*
X168147Y560323D01*
G37*
%LPD*%
%LPC*%
G36*
X175540Y542273D02*
X175540Y542273D01*
X174095Y542742D01*
X172741Y543432D01*
X171512Y544325D01*
X170437Y545400D01*
X169544Y546629D01*
X168854Y547983D01*
X168385Y549428D01*
X168147Y550928D01*
X168147Y557277D01*
X176277Y557277D01*
X176277Y542156D01*
X175540Y542273D01*
G37*
%LPD*%
%LPC*%
G36*
X468223Y446023D02*
X468223Y446023D01*
X468223Y454541D01*
X473534Y454541D01*
X474181Y454368D01*
X474760Y454033D01*
X475233Y453560D01*
X475568Y452981D01*
X475741Y452334D01*
X475741Y446023D01*
X468223Y446023D01*
G37*
%LPD*%
%LPC*%
G36*
X519023Y573023D02*
X519023Y573023D01*
X519023Y581541D01*
X524334Y581541D01*
X524981Y581368D01*
X525560Y581033D01*
X526033Y580560D01*
X526368Y579981D01*
X526541Y579334D01*
X526541Y573023D01*
X519023Y573023D01*
G37*
%LPD*%
%LPC*%
G36*
X576223Y344423D02*
X576223Y344423D01*
X576223Y352941D01*
X581534Y352941D01*
X582181Y352768D01*
X582760Y352433D01*
X583233Y351960D01*
X583568Y351381D01*
X583741Y350734D01*
X583741Y344423D01*
X576223Y344423D01*
G37*
%LPD*%
%LPC*%
G36*
X531723Y522223D02*
X531723Y522223D01*
X531723Y530741D01*
X537034Y530741D01*
X537681Y530568D01*
X538260Y530233D01*
X538733Y529760D01*
X539068Y529181D01*
X539241Y528534D01*
X539241Y522223D01*
X531723Y522223D01*
G37*
%LPD*%
%LPC*%
G36*
X461923Y509523D02*
X461923Y509523D01*
X461923Y518041D01*
X467234Y518041D01*
X467881Y517868D01*
X468460Y517533D01*
X468933Y517060D01*
X469268Y516481D01*
X469441Y515834D01*
X469441Y509523D01*
X461923Y509523D01*
G37*
%LPD*%
%LPC*%
G36*
X201523Y496823D02*
X201523Y496823D01*
X201523Y505341D01*
X206834Y505341D01*
X207481Y505168D01*
X208060Y504833D01*
X208533Y504360D01*
X208868Y503781D01*
X209041Y503134D01*
X209041Y496823D01*
X201523Y496823D01*
G37*
%LPD*%
%LPC*%
G36*
X623823Y461923D02*
X623823Y461923D01*
X623823Y469441D01*
X630134Y469441D01*
X630781Y469268D01*
X631360Y468933D01*
X631833Y468460D01*
X632168Y467881D01*
X632341Y467234D01*
X632341Y461923D01*
X623823Y461923D01*
G37*
%LPD*%
%LPC*%
G36*
X576223Y332859D02*
X576223Y332859D01*
X576223Y341377D01*
X583741Y341377D01*
X583741Y335066D01*
X583568Y334419D01*
X583233Y333840D01*
X582760Y333367D01*
X582181Y333032D01*
X581534Y332859D01*
X576223Y332859D01*
G37*
%LPD*%
%LPC*%
G36*
X201523Y485259D02*
X201523Y485259D01*
X201523Y493777D01*
X209041Y493777D01*
X209041Y487466D01*
X208868Y486819D01*
X208533Y486240D01*
X208060Y485767D01*
X207481Y485432D01*
X206834Y485259D01*
X201523Y485259D01*
G37*
%LPD*%
%LPC*%
G36*
X468223Y434459D02*
X468223Y434459D01*
X468223Y442977D01*
X475741Y442977D01*
X475741Y436666D01*
X475568Y436019D01*
X475233Y435440D01*
X474760Y434967D01*
X474181Y434632D01*
X473534Y434459D01*
X468223Y434459D01*
G37*
%LPD*%
%LPC*%
G36*
X519023Y561459D02*
X519023Y561459D01*
X519023Y569977D01*
X526541Y569977D01*
X526541Y563666D01*
X526368Y563019D01*
X526033Y562440D01*
X525560Y561967D01*
X524981Y561632D01*
X524334Y561459D01*
X519023Y561459D01*
G37*
%LPD*%
%LPC*%
G36*
X531723Y510659D02*
X531723Y510659D01*
X531723Y519177D01*
X539241Y519177D01*
X539241Y512866D01*
X539068Y512219D01*
X538733Y511640D01*
X538260Y511167D01*
X537681Y510832D01*
X537034Y510659D01*
X531723Y510659D01*
G37*
%LPD*%
%LPC*%
G36*
X468223Y383659D02*
X468223Y383659D01*
X468223Y392177D01*
X475741Y392177D01*
X475741Y385866D01*
X475568Y385219D01*
X475233Y384640D01*
X474760Y384167D01*
X474181Y383832D01*
X473534Y383659D01*
X468223Y383659D01*
G37*
%LPD*%
%LPC*%
G36*
X461923Y497959D02*
X461923Y497959D01*
X461923Y506477D01*
X469441Y506477D01*
X469441Y500166D01*
X469268Y499519D01*
X468933Y498940D01*
X468460Y498467D01*
X467881Y498132D01*
X467234Y497959D01*
X461923Y497959D01*
G37*
%LPD*%
%LPC*%
G36*
X565659Y344423D02*
X565659Y344423D01*
X565659Y350734D01*
X565832Y351381D01*
X566167Y351960D01*
X566640Y352433D01*
X567219Y352768D01*
X567866Y352941D01*
X573177Y352941D01*
X573177Y344423D01*
X565659Y344423D01*
G37*
%LPD*%
%LPC*%
G36*
X190959Y496823D02*
X190959Y496823D01*
X190959Y503134D01*
X191132Y503781D01*
X191467Y504360D01*
X191940Y504833D01*
X192519Y505168D01*
X193166Y505341D01*
X198477Y505341D01*
X198477Y496823D01*
X190959Y496823D01*
G37*
%LPD*%
%LPC*%
G36*
X451359Y509523D02*
X451359Y509523D01*
X451359Y515834D01*
X451532Y516481D01*
X451867Y517060D01*
X452340Y517533D01*
X452919Y517868D01*
X453566Y518041D01*
X458877Y518041D01*
X458877Y509523D01*
X451359Y509523D01*
G37*
%LPD*%
%LPC*%
G36*
X623823Y451359D02*
X623823Y451359D01*
X623823Y458877D01*
X632341Y458877D01*
X632341Y453566D01*
X632168Y452919D01*
X631833Y452340D01*
X631360Y451867D01*
X630781Y451532D01*
X630134Y451359D01*
X623823Y451359D01*
G37*
%LPD*%
%LPC*%
G36*
X508459Y573023D02*
X508459Y573023D01*
X508459Y579334D01*
X508632Y579981D01*
X508967Y580560D01*
X509440Y581033D01*
X510019Y581368D01*
X510666Y581541D01*
X515977Y581541D01*
X515977Y573023D01*
X508459Y573023D01*
G37*
%LPD*%
%LPC*%
G36*
X457659Y446023D02*
X457659Y446023D01*
X457659Y452334D01*
X457832Y452981D01*
X458167Y453560D01*
X458640Y454033D01*
X459219Y454368D01*
X459866Y454541D01*
X465177Y454541D01*
X465177Y446023D01*
X457659Y446023D01*
G37*
%LPD*%
%LPC*%
G36*
X457659Y395223D02*
X457659Y395223D01*
X457659Y401534D01*
X457832Y402181D01*
X458167Y402760D01*
X458640Y403233D01*
X459219Y403568D01*
X459866Y403741D01*
X465177Y403741D01*
X465177Y395223D01*
X457659Y395223D01*
G37*
%LPD*%
%LPC*%
G36*
X521159Y522223D02*
X521159Y522223D01*
X521159Y528534D01*
X521332Y529181D01*
X521667Y529760D01*
X522140Y530233D01*
X522719Y530568D01*
X523366Y530741D01*
X528677Y530741D01*
X528677Y522223D01*
X521159Y522223D01*
G37*
%LPD*%
%LPC*%
G36*
X193166Y485259D02*
X193166Y485259D01*
X192519Y485432D01*
X191940Y485767D01*
X191467Y486240D01*
X191132Y486819D01*
X190959Y487466D01*
X190959Y493777D01*
X198477Y493777D01*
X198477Y485259D01*
X193166Y485259D01*
G37*
%LPD*%
%LPC*%
G36*
X459866Y434459D02*
X459866Y434459D01*
X459219Y434632D01*
X458640Y434967D01*
X458167Y435440D01*
X457832Y436019D01*
X457659Y436666D01*
X457659Y442977D01*
X465177Y442977D01*
X465177Y434459D01*
X459866Y434459D01*
G37*
%LPD*%
%LPC*%
G36*
X459866Y383659D02*
X459866Y383659D01*
X459219Y383832D01*
X458640Y384167D01*
X458167Y384640D01*
X457832Y385219D01*
X457659Y385866D01*
X457659Y392177D01*
X465177Y392177D01*
X465177Y383659D01*
X459866Y383659D01*
G37*
%LPD*%
%LPC*%
G36*
X510666Y561459D02*
X510666Y561459D01*
X510019Y561632D01*
X509440Y561967D01*
X508967Y562440D01*
X508632Y563019D01*
X508459Y563666D01*
X508459Y569977D01*
X515977Y569977D01*
X515977Y561459D01*
X510666Y561459D01*
G37*
%LPD*%
%LPC*%
G36*
X453566Y497959D02*
X453566Y497959D01*
X452919Y498132D01*
X452340Y498467D01*
X451867Y498940D01*
X451532Y499519D01*
X451359Y500166D01*
X451359Y506477D01*
X458877Y506477D01*
X458877Y497959D01*
X453566Y497959D01*
G37*
%LPD*%
%LPC*%
G36*
X567866Y332859D02*
X567866Y332859D01*
X567219Y333032D01*
X566640Y333367D01*
X566167Y333840D01*
X565832Y334419D01*
X565659Y335066D01*
X565659Y341377D01*
X573177Y341377D01*
X573177Y332859D01*
X567866Y332859D01*
G37*
%LPD*%
%LPC*%
G36*
X523366Y510659D02*
X523366Y510659D01*
X522719Y510832D01*
X522140Y511167D01*
X521667Y511640D01*
X521332Y512219D01*
X521159Y512866D01*
X521159Y519177D01*
X528677Y519177D01*
X528677Y510659D01*
X523366Y510659D01*
G37*
%LPD*%
G36*
X522339Y488782D02*
X522339Y488782D01*
X522442Y488785D01*
X522461Y488792D01*
X522481Y488793D01*
X522576Y488834D01*
X522673Y488869D01*
X522689Y488882D01*
X522707Y488890D01*
X522838Y488995D01*
X523668Y489825D01*
X528932Y489825D01*
X529064Y489693D01*
X529159Y489624D01*
X529256Y489553D01*
X529260Y489551D01*
X529263Y489549D01*
X529377Y489514D01*
X529490Y489478D01*
X529495Y489478D01*
X529498Y489477D01*
X529617Y489480D01*
X529736Y489482D01*
X529740Y489483D01*
X529744Y489483D01*
X529855Y489524D01*
X529968Y489563D01*
X529971Y489566D01*
X529975Y489567D01*
X530068Y489642D01*
X530162Y489715D01*
X530165Y489719D01*
X530167Y489721D01*
X530175Y489733D01*
X530261Y489850D01*
X530267Y489860D01*
X530597Y490190D01*
X530638Y490248D01*
X530688Y490300D01*
X530710Y490347D01*
X530740Y490389D01*
X530761Y490458D01*
X530791Y490523D01*
X530797Y490575D01*
X530813Y490625D01*
X530811Y490696D01*
X530819Y490767D01*
X530807Y490818D01*
X530806Y490870D01*
X530782Y490938D01*
X530766Y491008D01*
X530740Y491053D01*
X530722Y491101D01*
X530677Y491157D01*
X530640Y491219D01*
X530601Y491253D01*
X530568Y491293D01*
X530508Y491332D01*
X530453Y491379D01*
X530405Y491398D01*
X530361Y491426D01*
X530292Y491444D01*
X530225Y491471D01*
X530154Y491479D01*
X530123Y491487D01*
X530099Y491485D01*
X530058Y491489D01*
X514542Y491489D01*
X514471Y491478D01*
X514399Y491476D01*
X514350Y491458D01*
X514299Y491450D01*
X514236Y491416D01*
X514168Y491391D01*
X514128Y491359D01*
X514082Y491334D01*
X514032Y491283D01*
X513976Y491238D01*
X513948Y491194D01*
X513912Y491156D01*
X513882Y491091D01*
X513843Y491031D01*
X513830Y490980D01*
X513809Y490933D01*
X513801Y490862D01*
X513783Y490792D01*
X513787Y490740D01*
X513781Y490689D01*
X513797Y490618D01*
X513802Y490547D01*
X513823Y490499D01*
X513834Y490448D01*
X513871Y490387D01*
X513899Y490321D01*
X513943Y490265D01*
X513960Y490237D01*
X513978Y490222D01*
X514003Y490190D01*
X514333Y489860D01*
X514339Y489850D01*
X514414Y489759D01*
X514488Y489665D01*
X514492Y489663D01*
X514495Y489660D01*
X514594Y489597D01*
X514695Y489532D01*
X514699Y489531D01*
X514703Y489529D01*
X514818Y489501D01*
X514934Y489472D01*
X514938Y489473D01*
X514942Y489472D01*
X515061Y489482D01*
X515179Y489491D01*
X515183Y489493D01*
X515187Y489493D01*
X515295Y489541D01*
X515405Y489588D01*
X515409Y489591D01*
X515412Y489592D01*
X515422Y489601D01*
X515536Y489693D01*
X515668Y489825D01*
X520932Y489825D01*
X521762Y488995D01*
X521778Y488983D01*
X521790Y488967D01*
X521878Y488911D01*
X521961Y488851D01*
X521980Y488845D01*
X521997Y488834D01*
X522098Y488809D01*
X522197Y488779D01*
X522216Y488779D01*
X522236Y488774D01*
X522339Y488782D01*
G37*
%LPC*%
G36*
X225805Y464311D02*
X225805Y464311D01*
X225805Y464313D01*
X225807Y464313D01*
X225807Y464311D01*
X225805Y464311D01*
G37*
%LPD*%
%LPC*%
G36*
X800099Y406599D02*
X800099Y406599D01*
X800099Y406601D01*
X800101Y406601D01*
X800101Y406599D01*
X800099Y406599D01*
G37*
%LPD*%
%LPC*%
G36*
X225805Y399287D02*
X225805Y399287D01*
X225805Y399289D01*
X225807Y399289D01*
X225807Y399287D01*
X225805Y399287D01*
G37*
%LPD*%
%LPC*%
G36*
X800099Y356599D02*
X800099Y356599D01*
X800099Y356601D01*
X800101Y356601D01*
X800101Y356599D01*
X800099Y356599D01*
G37*
%LPD*%
%LPC*%
G36*
X177799Y558799D02*
X177799Y558799D01*
X177799Y558801D01*
X177801Y558801D01*
X177801Y558799D01*
X177799Y558799D01*
G37*
%LPD*%
%LPC*%
G36*
X800099Y506599D02*
X800099Y506599D01*
X800099Y506601D01*
X800101Y506601D01*
X800101Y506599D01*
X800099Y506599D01*
G37*
%LPD*%
%LPC*%
G36*
X517499Y571499D02*
X517499Y571499D01*
X517499Y571501D01*
X517501Y571501D01*
X517501Y571499D01*
X517499Y571499D01*
G37*
%LPD*%
%LPC*%
G36*
X466699Y444499D02*
X466699Y444499D01*
X466699Y444501D01*
X466701Y444501D01*
X466701Y444499D01*
X466699Y444499D01*
G37*
%LPD*%
%LPC*%
G36*
X199999Y495299D02*
X199999Y495299D01*
X199999Y495301D01*
X200001Y495301D01*
X200001Y495299D01*
X199999Y495299D01*
G37*
%LPD*%
%LPC*%
G36*
X530199Y520699D02*
X530199Y520699D01*
X530199Y520701D01*
X530201Y520701D01*
X530201Y520699D01*
X530199Y520699D01*
G37*
%LPD*%
%LPC*%
G36*
X466699Y393699D02*
X466699Y393699D01*
X466699Y393701D01*
X466701Y393701D01*
X466701Y393699D01*
X466699Y393699D01*
G37*
%LPD*%
%LPC*%
G36*
X460399Y507999D02*
X460399Y507999D01*
X460399Y508001D01*
X460401Y508001D01*
X460401Y507999D01*
X460399Y507999D01*
G37*
%LPD*%
%LPC*%
G36*
X574699Y342899D02*
X574699Y342899D01*
X574699Y342901D01*
X574701Y342901D01*
X574701Y342899D01*
X574699Y342899D01*
G37*
%LPD*%
D10*
X498500Y571500D03*
X517500Y571500D03*
X479400Y508000D03*
X460400Y508000D03*
X593700Y342900D03*
X574700Y342900D03*
D11*
X622300Y479400D03*
X622300Y460400D03*
D10*
X511200Y520700D03*
X530200Y520700D03*
X447700Y444500D03*
X466700Y444500D03*
X447700Y393700D03*
X466700Y393700D03*
D12*
X203200Y551688D02*
X203200Y565912D01*
X177800Y565912D02*
X177800Y551688D01*
D13*
X247800Y558800D03*
X234800Y558800D03*
D14*
X792480Y481600D02*
X807720Y481600D01*
X807720Y456600D02*
X792480Y456600D01*
X792480Y356600D02*
X807720Y356600D01*
X807720Y431600D02*
X792480Y431600D01*
X792480Y406600D02*
X807720Y406600D01*
X807720Y381600D02*
X792480Y381600D01*
X792480Y331600D02*
X807720Y331600D01*
X807720Y306600D02*
X792480Y306600D01*
X792480Y506600D02*
X807720Y506600D01*
X807720Y531600D02*
X792480Y531600D01*
D15*
X406400Y466600D03*
X406400Y371600D03*
D16*
X453900Y558800D03*
X358900Y558800D03*
D10*
X231800Y508000D03*
X250800Y508000D03*
X181000Y495300D03*
X200000Y495300D03*
D14*
X180594Y406908D02*
X180594Y391668D01*
X225806Y391668D02*
X225806Y406908D01*
X180594Y456692D02*
X180594Y471932D01*
X225806Y471932D02*
X225806Y456692D01*
D17*
X490300Y471300D03*
X490300Y463300D03*
X490300Y455300D03*
X490300Y447300D03*
X490300Y439300D03*
X490300Y431300D03*
X490300Y423300D03*
X490300Y415300D03*
X490300Y407300D03*
X490300Y399300D03*
X490300Y391300D03*
X490300Y383300D03*
D18*
X502300Y371300D03*
X510300Y371300D03*
X518300Y371300D03*
X526300Y371300D03*
X534300Y371300D03*
X542300Y371300D03*
X550300Y371300D03*
X558300Y371300D03*
X566300Y371300D03*
X574300Y371300D03*
X582300Y371300D03*
X590300Y371300D03*
D17*
X602300Y383300D03*
X602300Y391300D03*
X602300Y399300D03*
X602300Y407300D03*
X602300Y415300D03*
X602300Y423300D03*
X602300Y431300D03*
X602300Y439300D03*
X602300Y447300D03*
X602300Y455300D03*
X602300Y463300D03*
X602300Y471300D03*
D18*
X590300Y483300D03*
X582300Y483300D03*
X574300Y483300D03*
X566300Y483300D03*
X558300Y483300D03*
X550300Y483300D03*
X542300Y483300D03*
X534300Y483300D03*
X526300Y483300D03*
X518300Y483300D03*
X510300Y483300D03*
X502300Y483300D03*
D19*
X591312Y370332D02*
X591312Y344424D01*
X592836Y342900D01*
X591312Y370332D02*
X590300Y371300D01*
X592836Y342900D02*
X593700Y342900D01*
X713232Y342900D01*
X748284Y307848D01*
X800100Y307848D01*
X800100Y306600D01*
X502920Y493776D02*
X502920Y512064D01*
X502920Y493776D02*
X502920Y484632D01*
X502920Y512064D02*
X510540Y519684D01*
X502920Y484632D02*
X502300Y483300D01*
X510540Y519684D02*
X511200Y520700D01*
X519684Y470916D02*
X577596Y470916D01*
X601980Y470916D01*
X519684Y470916D02*
X515112Y466344D01*
X509016Y466344D01*
X502920Y472440D01*
X502920Y483108D01*
X601980Y470916D02*
X602300Y471300D01*
X502920Y483108D02*
X502300Y483300D01*
X609600Y480060D02*
X621792Y480060D01*
X609600Y480060D02*
X595884Y493776D01*
X502920Y493776D01*
X621792Y480060D02*
X622300Y479400D01*
X248412Y510540D02*
X248412Y557784D01*
X248412Y510540D02*
X249936Y509016D01*
X248412Y557784D02*
X247800Y558800D01*
X249936Y509016D02*
X250800Y508000D01*
X251460Y507492D02*
X364236Y507492D01*
X251460Y507492D02*
X250800Y508000D01*
X501396Y493776D02*
X502920Y493776D01*
X577596Y470916D02*
X577596Y441960D01*
D20*
X364236Y507492D03*
X501396Y493776D03*
X577596Y441960D03*
D19*
X513588Y487680D02*
X510540Y484632D01*
X513588Y487680D02*
X513588Y489204D01*
X515112Y490728D01*
X530352Y490728D01*
X533400Y487680D01*
X533400Y484632D01*
X510540Y484632D02*
X510300Y483300D01*
X533400Y484632D02*
X534300Y483300D01*
X201168Y489204D02*
X201168Y495300D01*
X201168Y489204D02*
X225552Y464820D01*
X201168Y495300D02*
X200000Y495300D01*
X225552Y464820D02*
X225806Y464312D01*
X510540Y473964D02*
X510540Y483108D01*
X510540Y473964D02*
X512064Y472440D01*
X510540Y483108D02*
X510300Y483300D01*
X178308Y516636D02*
X178308Y557784D01*
X178308Y516636D02*
X199644Y495300D01*
X178308Y557784D02*
X177800Y558800D01*
X199644Y495300D02*
X200000Y495300D01*
X227076Y463296D02*
X227076Y399288D01*
X225806Y399288D01*
X227076Y463296D02*
X225806Y464312D01*
X800100Y359664D02*
X800100Y356600D01*
X800100Y359664D02*
X818388Y377952D01*
X818388Y387096D01*
X800100Y405384D01*
X800100Y406600D01*
X781812Y487680D02*
X800100Y505968D01*
X781812Y487680D02*
X781812Y425196D01*
X800100Y406908D01*
X800100Y505968D02*
X800100Y506600D01*
X800100Y406908D02*
X800100Y406600D01*
X582168Y370332D02*
X582168Y348996D01*
X576072Y342900D01*
X582168Y370332D02*
X582300Y371300D01*
X576072Y342900D02*
X574700Y342900D01*
X598932Y463296D02*
X601980Y463296D01*
X598932Y463296D02*
X583692Y448056D01*
X583692Y371856D01*
X601980Y463296D02*
X602300Y463300D01*
X583692Y371856D02*
X582300Y371300D01*
X445008Y358140D02*
X444500Y358140D01*
X530352Y521208D02*
X530352Y546100D01*
X530352Y521208D02*
X530200Y520700D01*
X623316Y461772D02*
X632460Y470916D01*
X632460Y487680D01*
X600456Y519684D01*
X530352Y519684D01*
X622300Y460400D02*
X623316Y461772D01*
X530352Y519684D02*
X530200Y520700D01*
X469392Y495300D02*
X469392Y482600D01*
X454152Y342900D02*
X574700Y342900D01*
X454152Y342900D02*
X445008Y333756D01*
X444500Y333756D01*
X632460Y487680D02*
X781812Y487680D01*
X182880Y559308D02*
X178308Y559308D01*
X182880Y559308D02*
X199644Y576072D01*
X317500Y576072D01*
X178308Y559308D02*
X177800Y558800D01*
D20*
X512064Y472440D03*
X445008Y358140D03*
D19*
X234696Y559308D02*
X204216Y559308D01*
X234696Y559308D02*
X234800Y558800D01*
X204216Y559308D02*
X203200Y558800D01*
X480060Y406908D02*
X489204Y406908D01*
X480060Y406908D02*
X478536Y405384D01*
X489204Y406908D02*
X490300Y407300D01*
X233172Y480060D02*
X233172Y507492D01*
X233172Y480060D02*
X364236Y348996D01*
X364236Y329184D01*
X367284Y326136D01*
X432816Y326136D01*
X484632Y377952D01*
X495300Y377952D01*
X498348Y381000D01*
X498348Y402336D01*
X495300Y405384D02*
X493776Y406908D01*
X495300Y405384D02*
X498348Y402336D01*
X493776Y406908D02*
X490728Y406908D01*
X233172Y507492D02*
X231800Y508000D01*
X490300Y407300D02*
X490728Y406908D01*
X496824Y405384D02*
X521208Y429768D01*
X496824Y405384D02*
X495300Y405384D01*
D20*
X478536Y405384D03*
X521208Y429768D03*
D19*
X489204Y416052D02*
X478536Y416052D01*
X489204Y416052D02*
X490300Y415300D01*
X181356Y486156D02*
X181356Y495300D01*
X181356Y486156D02*
X220980Y446532D01*
X220980Y434340D01*
X181356Y495300D02*
X181000Y495300D01*
D20*
X478536Y416052D03*
X220980Y434340D03*
D19*
X490728Y423672D02*
X501396Y423672D01*
X490728Y423672D02*
X490300Y423300D01*
D20*
X501396Y423672D03*
D19*
X489204Y438912D02*
X484632Y438912D01*
X475488Y429768D01*
X455676Y429768D01*
X448056Y437388D01*
X448056Y443484D01*
X489204Y438912D02*
X490300Y439300D01*
X448056Y443484D02*
X447700Y444500D01*
X446532Y445008D02*
X434340Y445008D01*
X413004Y466344D01*
X406908Y466344D01*
X446532Y445008D02*
X447700Y444500D01*
X406908Y466344D02*
X406400Y466600D01*
X481584Y431292D02*
X489204Y431292D01*
X481584Y431292D02*
X458724Y408432D01*
X455676Y408432D01*
X448056Y400812D01*
X448056Y394716D01*
X489204Y431292D02*
X490300Y431300D01*
X448056Y394716D02*
X447700Y393700D01*
X446532Y393192D02*
X434340Y393192D01*
X413004Y371856D01*
X406908Y371856D01*
X446532Y393192D02*
X447700Y393700D01*
X406908Y371856D02*
X406400Y371600D01*
X486156Y448056D02*
X489204Y448056D01*
X486156Y448056D02*
X478536Y455676D01*
X478536Y478536D02*
X478536Y507492D01*
X478536Y478536D02*
X478536Y455676D01*
X489204Y448056D02*
X490300Y447300D01*
X478536Y507492D02*
X479400Y508000D01*
X478536Y478536D02*
X469392Y478536D01*
X455676Y492252D01*
X441960Y492252D01*
X435864Y498348D01*
X435864Y509016D01*
X428244Y516636D01*
X413004Y516636D01*
X371856Y557784D01*
X359664Y557784D01*
X358900Y558800D01*
X490728Y455676D02*
X493776Y455676D01*
X498348Y460248D01*
X498348Y477012D01*
X495300Y480060D01*
X495300Y496824D01*
X498348Y499872D01*
X498348Y551688D02*
X498348Y571500D01*
X498348Y551688D02*
X498348Y499872D01*
X490728Y455676D02*
X490300Y455300D01*
X498348Y571500D02*
X498500Y571500D01*
X498348Y551688D02*
X460248Y551688D01*
X454152Y557784D01*
X453900Y558800D01*
X603504Y454152D02*
X606552Y454152D01*
X728472Y332232D01*
X800100Y332232D01*
X603504Y454152D02*
X602300Y455300D01*
X800100Y332232D02*
X800100Y331600D01*
X601980Y483108D02*
X591312Y483108D01*
X601980Y483108D02*
X611124Y473964D01*
X611124Y454152D01*
X682752Y382524D01*
X800100Y382524D01*
X591312Y483108D02*
X590300Y483300D01*
X800100Y382524D02*
X800100Y381600D01*
M02*
