G04 EAGLE Gerber RS-274X export*
G75*
%MOMM*%
%FSLAX34Y34*%
%LPD*%
%INSilkscreen Bottom*%
%IPPOS*%
%AMOC8*
5,1,8,0,0,1.08239X$1,22.5*%
G01*
%ADD10C,0.203200*%
%ADD11C,0.101600*%


D10*
X439400Y483100D02*
X439400Y355100D01*
X453900Y355100D01*
X485900Y355100D02*
X500400Y355100D01*
X500400Y483100D01*
X485900Y483100D01*
X453900Y483100D02*
X439400Y483100D01*
X449900Y482600D02*
X449900Y464100D01*
X440400Y461600D01*
X489900Y464100D02*
X489900Y482600D01*
X489900Y464100D02*
X499400Y461600D01*
D11*
X483108Y399401D02*
X483108Y396804D01*
X483110Y396705D01*
X483116Y396605D01*
X483125Y396506D01*
X483138Y396408D01*
X483155Y396310D01*
X483176Y396212D01*
X483201Y396116D01*
X483229Y396021D01*
X483261Y395927D01*
X483296Y395834D01*
X483335Y395742D01*
X483378Y395652D01*
X483423Y395564D01*
X483473Y395477D01*
X483525Y395393D01*
X483581Y395310D01*
X483639Y395230D01*
X483701Y395152D01*
X483766Y395077D01*
X483834Y395004D01*
X483904Y394934D01*
X483977Y394866D01*
X484052Y394801D01*
X484130Y394739D01*
X484210Y394681D01*
X484293Y394625D01*
X484377Y394573D01*
X484464Y394523D01*
X484552Y394478D01*
X484642Y394435D01*
X484734Y394396D01*
X484827Y394361D01*
X484921Y394329D01*
X485016Y394301D01*
X485112Y394276D01*
X485210Y394255D01*
X485308Y394238D01*
X485406Y394225D01*
X485505Y394216D01*
X485605Y394210D01*
X485704Y394208D01*
X492196Y394208D01*
X492295Y394210D01*
X492395Y394216D01*
X492494Y394225D01*
X492592Y394238D01*
X492690Y394255D01*
X492788Y394276D01*
X492884Y394301D01*
X492979Y394329D01*
X493073Y394361D01*
X493166Y394396D01*
X493258Y394435D01*
X493348Y394478D01*
X493436Y394523D01*
X493523Y394573D01*
X493607Y394625D01*
X493690Y394681D01*
X493770Y394739D01*
X493848Y394801D01*
X493923Y394866D01*
X493996Y394934D01*
X494066Y395004D01*
X494134Y395077D01*
X494199Y395152D01*
X494261Y395230D01*
X494319Y395310D01*
X494375Y395393D01*
X494427Y395477D01*
X494477Y395564D01*
X494522Y395652D01*
X494565Y395742D01*
X494604Y395834D01*
X494639Y395926D01*
X494671Y396021D01*
X494699Y396116D01*
X494724Y396212D01*
X494745Y396310D01*
X494762Y396408D01*
X494775Y396506D01*
X494784Y396605D01*
X494790Y396705D01*
X494792Y396804D01*
X494792Y399401D01*
X492196Y403766D02*
X494792Y407012D01*
X483108Y407012D01*
X483108Y410257D02*
X483108Y403766D01*
D10*
X528300Y355100D02*
X528300Y483100D01*
X528300Y355100D02*
X542800Y355100D01*
X574800Y355100D02*
X589300Y355100D01*
X589300Y483100D01*
X574800Y483100D01*
X542800Y483100D02*
X528300Y483100D01*
X538800Y482600D02*
X538800Y464100D01*
X529300Y461600D01*
X578800Y464100D02*
X578800Y482600D01*
X578800Y464100D02*
X588300Y461600D01*
D11*
X572008Y399401D02*
X572008Y396804D01*
X572010Y396705D01*
X572016Y396605D01*
X572025Y396506D01*
X572038Y396408D01*
X572055Y396310D01*
X572076Y396212D01*
X572101Y396116D01*
X572129Y396021D01*
X572161Y395927D01*
X572196Y395834D01*
X572235Y395742D01*
X572278Y395652D01*
X572323Y395564D01*
X572373Y395477D01*
X572425Y395393D01*
X572481Y395310D01*
X572539Y395230D01*
X572601Y395152D01*
X572666Y395077D01*
X572734Y395004D01*
X572804Y394934D01*
X572877Y394866D01*
X572952Y394801D01*
X573030Y394739D01*
X573110Y394681D01*
X573193Y394625D01*
X573277Y394573D01*
X573364Y394523D01*
X573452Y394478D01*
X573542Y394435D01*
X573634Y394396D01*
X573727Y394361D01*
X573821Y394329D01*
X573916Y394301D01*
X574012Y394276D01*
X574110Y394255D01*
X574208Y394238D01*
X574306Y394225D01*
X574405Y394216D01*
X574505Y394210D01*
X574604Y394208D01*
X581096Y394208D01*
X581195Y394210D01*
X581295Y394216D01*
X581394Y394225D01*
X581492Y394238D01*
X581590Y394255D01*
X581688Y394276D01*
X581784Y394301D01*
X581879Y394329D01*
X581973Y394361D01*
X582066Y394396D01*
X582158Y394435D01*
X582248Y394478D01*
X582336Y394523D01*
X582423Y394573D01*
X582507Y394625D01*
X582590Y394681D01*
X582670Y394739D01*
X582748Y394801D01*
X582823Y394866D01*
X582896Y394934D01*
X582966Y395004D01*
X583034Y395077D01*
X583099Y395152D01*
X583161Y395230D01*
X583219Y395310D01*
X583275Y395393D01*
X583327Y395477D01*
X583377Y395564D01*
X583422Y395652D01*
X583465Y395742D01*
X583504Y395834D01*
X583539Y395926D01*
X583571Y396021D01*
X583599Y396116D01*
X583624Y396212D01*
X583645Y396310D01*
X583662Y396408D01*
X583675Y396506D01*
X583684Y396605D01*
X583690Y396705D01*
X583692Y396804D01*
X583692Y399401D01*
X583692Y407336D02*
X583690Y407443D01*
X583684Y407549D01*
X583674Y407655D01*
X583661Y407761D01*
X583643Y407867D01*
X583622Y407971D01*
X583597Y408075D01*
X583568Y408178D01*
X583536Y408279D01*
X583499Y408379D01*
X583459Y408478D01*
X583416Y408576D01*
X583369Y408672D01*
X583318Y408766D01*
X583264Y408858D01*
X583207Y408948D01*
X583147Y409036D01*
X583083Y409121D01*
X583016Y409204D01*
X582946Y409285D01*
X582874Y409363D01*
X582798Y409439D01*
X582720Y409511D01*
X582639Y409581D01*
X582556Y409648D01*
X582471Y409712D01*
X582383Y409772D01*
X582293Y409829D01*
X582201Y409883D01*
X582107Y409934D01*
X582011Y409981D01*
X581913Y410024D01*
X581814Y410064D01*
X581714Y410101D01*
X581613Y410133D01*
X581510Y410162D01*
X581406Y410187D01*
X581302Y410208D01*
X581196Y410226D01*
X581090Y410239D01*
X580984Y410249D01*
X580878Y410255D01*
X580771Y410257D01*
X583692Y407336D02*
X583690Y407215D01*
X583684Y407094D01*
X583674Y406974D01*
X583661Y406853D01*
X583643Y406734D01*
X583622Y406614D01*
X583597Y406496D01*
X583568Y406379D01*
X583535Y406262D01*
X583499Y406147D01*
X583458Y406033D01*
X583415Y405920D01*
X583367Y405808D01*
X583316Y405699D01*
X583261Y405591D01*
X583203Y405484D01*
X583142Y405380D01*
X583077Y405278D01*
X583009Y405178D01*
X582938Y405080D01*
X582864Y404984D01*
X582787Y404891D01*
X582706Y404801D01*
X582623Y404713D01*
X582537Y404628D01*
X582448Y404545D01*
X582357Y404466D01*
X582263Y404389D01*
X582167Y404316D01*
X582069Y404246D01*
X581968Y404179D01*
X581865Y404115D01*
X581760Y404055D01*
X581653Y403998D01*
X581545Y403944D01*
X581435Y403894D01*
X581323Y403848D01*
X581210Y403805D01*
X581095Y403766D01*
X578499Y409284D02*
X578576Y409363D01*
X578657Y409439D01*
X578740Y409512D01*
X578825Y409582D01*
X578913Y409649D01*
X579003Y409713D01*
X579095Y409773D01*
X579190Y409830D01*
X579286Y409884D01*
X579384Y409935D01*
X579484Y409982D01*
X579586Y410026D01*
X579689Y410066D01*
X579793Y410102D01*
X579899Y410134D01*
X580005Y410163D01*
X580113Y410188D01*
X580221Y410210D01*
X580331Y410227D01*
X580440Y410241D01*
X580550Y410250D01*
X580661Y410256D01*
X580771Y410258D01*
X578499Y409284D02*
X572008Y403766D01*
X572008Y410257D01*
X470408Y386701D02*
X470408Y384104D01*
X470410Y384005D01*
X470416Y383905D01*
X470425Y383806D01*
X470438Y383708D01*
X470455Y383610D01*
X470476Y383512D01*
X470501Y383416D01*
X470529Y383321D01*
X470561Y383227D01*
X470596Y383134D01*
X470635Y383042D01*
X470678Y382952D01*
X470723Y382864D01*
X470773Y382777D01*
X470825Y382693D01*
X470881Y382610D01*
X470939Y382530D01*
X471001Y382452D01*
X471066Y382377D01*
X471134Y382304D01*
X471204Y382234D01*
X471277Y382166D01*
X471352Y382101D01*
X471430Y382039D01*
X471510Y381981D01*
X471593Y381925D01*
X471677Y381873D01*
X471764Y381823D01*
X471852Y381778D01*
X471942Y381735D01*
X472034Y381696D01*
X472127Y381661D01*
X472221Y381629D01*
X472316Y381601D01*
X472412Y381576D01*
X472510Y381555D01*
X472608Y381538D01*
X472706Y381525D01*
X472805Y381516D01*
X472905Y381510D01*
X473004Y381508D01*
X479496Y381508D01*
X479595Y381510D01*
X479695Y381516D01*
X479794Y381525D01*
X479892Y381538D01*
X479990Y381555D01*
X480088Y381576D01*
X480184Y381601D01*
X480279Y381629D01*
X480373Y381661D01*
X480466Y381696D01*
X480558Y381735D01*
X480648Y381778D01*
X480736Y381823D01*
X480823Y381873D01*
X480907Y381925D01*
X480990Y381981D01*
X481070Y382039D01*
X481148Y382101D01*
X481223Y382166D01*
X481296Y382234D01*
X481366Y382304D01*
X481434Y382377D01*
X481499Y382452D01*
X481561Y382530D01*
X481619Y382610D01*
X481675Y382693D01*
X481727Y382777D01*
X481777Y382864D01*
X481822Y382952D01*
X481865Y383042D01*
X481904Y383134D01*
X481939Y383226D01*
X481971Y383321D01*
X481999Y383416D01*
X482024Y383512D01*
X482045Y383610D01*
X482062Y383708D01*
X482075Y383806D01*
X482084Y383905D01*
X482090Y384005D01*
X482092Y384104D01*
X482092Y386701D01*
X470408Y391066D02*
X470408Y394961D01*
X470410Y395060D01*
X470416Y395160D01*
X470425Y395259D01*
X470438Y395357D01*
X470455Y395455D01*
X470476Y395553D01*
X470501Y395649D01*
X470529Y395744D01*
X470561Y395838D01*
X470596Y395931D01*
X470635Y396023D01*
X470678Y396113D01*
X470723Y396201D01*
X470773Y396288D01*
X470825Y396372D01*
X470881Y396455D01*
X470939Y396535D01*
X471001Y396613D01*
X471066Y396688D01*
X471134Y396761D01*
X471204Y396831D01*
X471277Y396899D01*
X471352Y396964D01*
X471430Y397026D01*
X471510Y397084D01*
X471593Y397140D01*
X471677Y397192D01*
X471764Y397242D01*
X471852Y397287D01*
X471942Y397330D01*
X472034Y397369D01*
X472127Y397404D01*
X472221Y397436D01*
X472316Y397464D01*
X472412Y397489D01*
X472510Y397510D01*
X472608Y397527D01*
X472706Y397540D01*
X472805Y397549D01*
X472905Y397555D01*
X473004Y397557D01*
X474303Y397557D01*
X474402Y397555D01*
X474502Y397549D01*
X474601Y397540D01*
X474699Y397527D01*
X474797Y397510D01*
X474895Y397489D01*
X474991Y397464D01*
X475086Y397436D01*
X475180Y397404D01*
X475273Y397369D01*
X475365Y397330D01*
X475455Y397287D01*
X475543Y397242D01*
X475630Y397192D01*
X475714Y397140D01*
X475797Y397084D01*
X475877Y397026D01*
X475955Y396964D01*
X476030Y396899D01*
X476103Y396831D01*
X476173Y396761D01*
X476241Y396688D01*
X476306Y396613D01*
X476368Y396535D01*
X476426Y396455D01*
X476482Y396372D01*
X476534Y396288D01*
X476584Y396201D01*
X476629Y396113D01*
X476672Y396023D01*
X476711Y395931D01*
X476746Y395838D01*
X476778Y395744D01*
X476806Y395649D01*
X476831Y395553D01*
X476852Y395455D01*
X476869Y395357D01*
X476882Y395259D01*
X476891Y395160D01*
X476897Y395060D01*
X476899Y394961D01*
X476899Y391066D01*
X482092Y391066D01*
X482092Y397557D01*
X470408Y434904D02*
X470408Y437501D01*
X470408Y434904D02*
X470410Y434805D01*
X470416Y434705D01*
X470425Y434606D01*
X470438Y434508D01*
X470455Y434410D01*
X470476Y434312D01*
X470501Y434216D01*
X470529Y434121D01*
X470561Y434027D01*
X470596Y433934D01*
X470635Y433842D01*
X470678Y433752D01*
X470723Y433664D01*
X470773Y433577D01*
X470825Y433493D01*
X470881Y433410D01*
X470939Y433330D01*
X471001Y433252D01*
X471066Y433177D01*
X471134Y433104D01*
X471204Y433034D01*
X471277Y432966D01*
X471352Y432901D01*
X471430Y432839D01*
X471510Y432781D01*
X471593Y432725D01*
X471677Y432673D01*
X471764Y432623D01*
X471852Y432578D01*
X471942Y432535D01*
X472034Y432496D01*
X472127Y432461D01*
X472221Y432429D01*
X472316Y432401D01*
X472412Y432376D01*
X472510Y432355D01*
X472608Y432338D01*
X472706Y432325D01*
X472805Y432316D01*
X472905Y432310D01*
X473004Y432308D01*
X479496Y432308D01*
X479595Y432310D01*
X479695Y432316D01*
X479794Y432325D01*
X479892Y432338D01*
X479990Y432355D01*
X480088Y432376D01*
X480184Y432401D01*
X480279Y432429D01*
X480373Y432461D01*
X480466Y432496D01*
X480558Y432535D01*
X480648Y432578D01*
X480736Y432623D01*
X480823Y432673D01*
X480907Y432725D01*
X480990Y432781D01*
X481070Y432839D01*
X481148Y432901D01*
X481223Y432966D01*
X481296Y433034D01*
X481366Y433104D01*
X481434Y433177D01*
X481499Y433252D01*
X481561Y433330D01*
X481619Y433410D01*
X481675Y433493D01*
X481727Y433577D01*
X481777Y433664D01*
X481822Y433752D01*
X481865Y433842D01*
X481904Y433934D01*
X481939Y434026D01*
X481971Y434121D01*
X481999Y434216D01*
X482024Y434312D01*
X482045Y434410D01*
X482062Y434508D01*
X482075Y434606D01*
X482084Y434705D01*
X482090Y434805D01*
X482092Y434904D01*
X482092Y437501D01*
X482092Y441866D02*
X480794Y441866D01*
X482092Y441866D02*
X482092Y448357D01*
X470408Y445112D01*
X228092Y425958D02*
X216408Y425958D01*
X228092Y425958D02*
X228092Y429204D01*
X228090Y429317D01*
X228084Y429430D01*
X228074Y429543D01*
X228060Y429656D01*
X228043Y429768D01*
X228021Y429879D01*
X227996Y429989D01*
X227966Y430099D01*
X227933Y430207D01*
X227896Y430314D01*
X227856Y430420D01*
X227811Y430524D01*
X227763Y430627D01*
X227712Y430728D01*
X227657Y430827D01*
X227599Y430924D01*
X227537Y431019D01*
X227472Y431112D01*
X227404Y431202D01*
X227333Y431290D01*
X227258Y431376D01*
X227181Y431459D01*
X227101Y431539D01*
X227018Y431616D01*
X226932Y431691D01*
X226844Y431762D01*
X226754Y431830D01*
X226661Y431895D01*
X226566Y431957D01*
X226469Y432015D01*
X226370Y432070D01*
X226269Y432121D01*
X226166Y432169D01*
X226062Y432214D01*
X225956Y432254D01*
X225849Y432291D01*
X225741Y432324D01*
X225631Y432354D01*
X225521Y432379D01*
X225410Y432401D01*
X225298Y432418D01*
X225185Y432432D01*
X225072Y432442D01*
X224959Y432448D01*
X224846Y432450D01*
X224733Y432448D01*
X224620Y432442D01*
X224507Y432432D01*
X224394Y432418D01*
X224282Y432401D01*
X224171Y432379D01*
X224061Y432354D01*
X223951Y432324D01*
X223843Y432291D01*
X223736Y432254D01*
X223630Y432214D01*
X223526Y432169D01*
X223423Y432121D01*
X223322Y432070D01*
X223223Y432015D01*
X223126Y431957D01*
X223031Y431895D01*
X222938Y431830D01*
X222848Y431762D01*
X222760Y431691D01*
X222674Y431616D01*
X222591Y431539D01*
X222511Y431459D01*
X222434Y431376D01*
X222359Y431290D01*
X222288Y431202D01*
X222220Y431112D01*
X222155Y431019D01*
X222093Y430924D01*
X222035Y430827D01*
X221980Y430728D01*
X221929Y430627D01*
X221881Y430524D01*
X221836Y430420D01*
X221796Y430314D01*
X221759Y430207D01*
X221726Y430099D01*
X221696Y429989D01*
X221671Y429879D01*
X221649Y429768D01*
X221632Y429656D01*
X221618Y429543D01*
X221608Y429430D01*
X221602Y429317D01*
X221600Y429204D01*
X221601Y429204D02*
X221601Y425958D01*
X221601Y429853D02*
X216408Y432449D01*
X216408Y437314D02*
X216408Y440560D01*
X216410Y440673D01*
X216416Y440786D01*
X216426Y440899D01*
X216440Y441012D01*
X216457Y441124D01*
X216479Y441235D01*
X216504Y441345D01*
X216534Y441455D01*
X216567Y441563D01*
X216604Y441670D01*
X216644Y441776D01*
X216689Y441880D01*
X216737Y441983D01*
X216788Y442084D01*
X216843Y442183D01*
X216901Y442280D01*
X216963Y442375D01*
X217028Y442468D01*
X217096Y442558D01*
X217167Y442646D01*
X217242Y442732D01*
X217319Y442815D01*
X217399Y442895D01*
X217482Y442972D01*
X217568Y443047D01*
X217656Y443118D01*
X217746Y443186D01*
X217839Y443251D01*
X217934Y443313D01*
X218031Y443371D01*
X218130Y443426D01*
X218231Y443477D01*
X218334Y443525D01*
X218438Y443570D01*
X218544Y443610D01*
X218651Y443647D01*
X218759Y443680D01*
X218869Y443710D01*
X218979Y443735D01*
X219090Y443757D01*
X219202Y443774D01*
X219315Y443788D01*
X219428Y443798D01*
X219541Y443804D01*
X219654Y443806D01*
X219767Y443804D01*
X219880Y443798D01*
X219993Y443788D01*
X220106Y443774D01*
X220218Y443757D01*
X220329Y443735D01*
X220439Y443710D01*
X220549Y443680D01*
X220657Y443647D01*
X220764Y443610D01*
X220870Y443570D01*
X220974Y443525D01*
X221077Y443477D01*
X221178Y443426D01*
X221277Y443371D01*
X221374Y443313D01*
X221469Y443251D01*
X221562Y443186D01*
X221652Y443118D01*
X221740Y443047D01*
X221826Y442972D01*
X221909Y442895D01*
X221989Y442815D01*
X222066Y442732D01*
X222141Y442646D01*
X222212Y442558D01*
X222280Y442468D01*
X222345Y442375D01*
X222407Y442280D01*
X222465Y442183D01*
X222520Y442084D01*
X222571Y441983D01*
X222619Y441880D01*
X222664Y441776D01*
X222704Y441670D01*
X222741Y441563D01*
X222774Y441455D01*
X222804Y441345D01*
X222829Y441235D01*
X222851Y441124D01*
X222868Y441012D01*
X222882Y440899D01*
X222892Y440786D01*
X222898Y440673D01*
X222900Y440560D01*
X228092Y441209D02*
X228092Y437314D01*
X228092Y441209D02*
X228090Y441310D01*
X228084Y441410D01*
X228074Y441510D01*
X228061Y441610D01*
X228043Y441709D01*
X228022Y441808D01*
X227997Y441905D01*
X227968Y442002D01*
X227935Y442097D01*
X227899Y442191D01*
X227859Y442283D01*
X227816Y442374D01*
X227769Y442463D01*
X227719Y442550D01*
X227665Y442636D01*
X227608Y442719D01*
X227548Y442799D01*
X227485Y442878D01*
X227418Y442954D01*
X227349Y443027D01*
X227277Y443097D01*
X227203Y443165D01*
X227126Y443230D01*
X227046Y443291D01*
X226964Y443350D01*
X226880Y443405D01*
X226794Y443457D01*
X226706Y443506D01*
X226616Y443551D01*
X226524Y443593D01*
X226431Y443631D01*
X226336Y443665D01*
X226241Y443696D01*
X226144Y443723D01*
X226046Y443746D01*
X225947Y443766D01*
X225847Y443781D01*
X225747Y443793D01*
X225647Y443801D01*
X225546Y443805D01*
X225446Y443805D01*
X225345Y443801D01*
X225245Y443793D01*
X225145Y443781D01*
X225045Y443766D01*
X224946Y443746D01*
X224848Y443723D01*
X224751Y443696D01*
X224656Y443665D01*
X224561Y443631D01*
X224468Y443593D01*
X224376Y443551D01*
X224286Y443506D01*
X224198Y443457D01*
X224112Y443405D01*
X224028Y443350D01*
X223946Y443291D01*
X223866Y443230D01*
X223789Y443165D01*
X223715Y443097D01*
X223643Y443027D01*
X223574Y442954D01*
X223507Y442878D01*
X223444Y442799D01*
X223384Y442719D01*
X223327Y442636D01*
X223273Y442550D01*
X223223Y442463D01*
X223176Y442374D01*
X223133Y442283D01*
X223093Y442191D01*
X223057Y442097D01*
X223024Y442002D01*
X222995Y441905D01*
X222970Y441808D01*
X222949Y441709D01*
X222931Y441610D01*
X222918Y441510D01*
X222908Y441410D01*
X222902Y441310D01*
X222900Y441209D01*
X222899Y441209D02*
X222899Y438613D01*
M02*
