G04 EAGLE Gerber RS-274X export*
G75*
%MOMM*%
%FSLAX34Y34*%
%LPD*%
%INSoldermask Bottom*%
%IPPOS*%
%AMOC8*
5,1,8,0,0,1.08239X$1,22.5*%
G01*
%ADD10R,3.003200X3.703200*%
%ADD11R,1.703200X1.503200*%
%ADD12C,1.625600*%
%ADD13C,1.727200*%
%ADD14C,0.959600*%


D10*
X469900Y481100D03*
X469900Y357100D03*
X558800Y481100D03*
X558800Y357100D03*
D11*
X457200Y384200D03*
X457200Y403200D03*
X457200Y435000D03*
X457200Y454000D03*
D12*
X203200Y551688D02*
X203200Y565912D01*
X177800Y565912D02*
X177800Y551688D01*
D13*
X792480Y481600D02*
X807720Y481600D01*
X807720Y456600D02*
X792480Y456600D01*
X792480Y356600D02*
X807720Y356600D01*
X807720Y431600D02*
X792480Y431600D01*
X792480Y406600D02*
X807720Y406600D01*
X807720Y381600D02*
X792480Y381600D01*
X792480Y331600D02*
X807720Y331600D01*
X807720Y306600D02*
X792480Y306600D01*
X792480Y506600D02*
X807720Y506600D01*
X807720Y531600D02*
X792480Y531600D01*
D11*
X203200Y422300D03*
X203200Y441300D03*
D13*
X180594Y406908D02*
X180594Y391668D01*
X225806Y391668D02*
X225806Y406908D01*
X180594Y456692D02*
X180594Y471932D01*
X225806Y471932D02*
X225806Y456692D01*
D14*
X364236Y507492D03*
X501396Y493776D03*
X577596Y441960D03*
X512064Y472440D03*
X445008Y358140D03*
X478536Y405384D03*
X521208Y429768D03*
X478536Y416052D03*
X220980Y434340D03*
X501396Y423672D03*
M02*
