G04 EAGLE Gerber RS-274X export*
G75*
%MOMM*%
%FSLAX34Y34*%
%LPD*%
%INSoldermask Top*%
%IPPOS*%
%AMOC8*
5,1,8,0,0,1.08239X$1,22.5*%
G01*
%ADD10R,1.503200X1.703200*%
%ADD11R,1.703200X1.503200*%
%ADD12C,1.625600*%
%ADD13R,0.903200X1.103200*%
%ADD14C,1.727200*%
%ADD15R,2.203200X5.703200*%
%ADD16R,5.703200X2.203200*%
%ADD17R,1.203200X0.603200*%
%ADD18R,0.603200X1.203200*%
%ADD19C,0.959600*%


D10*
X498500Y571500D03*
X517500Y571500D03*
X479400Y508000D03*
X460400Y508000D03*
X593700Y342900D03*
X574700Y342900D03*
D11*
X622300Y479400D03*
X622300Y460400D03*
D10*
X511200Y520700D03*
X530200Y520700D03*
X447700Y444500D03*
X466700Y444500D03*
X447700Y393700D03*
X466700Y393700D03*
D12*
X203200Y551688D02*
X203200Y565912D01*
X177800Y565912D02*
X177800Y551688D01*
D13*
X247800Y558800D03*
X234800Y558800D03*
D14*
X792480Y481600D02*
X807720Y481600D01*
X807720Y456600D02*
X792480Y456600D01*
X792480Y356600D02*
X807720Y356600D01*
X807720Y431600D02*
X792480Y431600D01*
X792480Y406600D02*
X807720Y406600D01*
X807720Y381600D02*
X792480Y381600D01*
X792480Y331600D02*
X807720Y331600D01*
X807720Y306600D02*
X792480Y306600D01*
X792480Y506600D02*
X807720Y506600D01*
X807720Y531600D02*
X792480Y531600D01*
D15*
X406400Y466600D03*
X406400Y371600D03*
D16*
X453900Y558800D03*
X358900Y558800D03*
D10*
X231800Y508000D03*
X250800Y508000D03*
X181000Y495300D03*
X200000Y495300D03*
D14*
X180594Y406908D02*
X180594Y391668D01*
X225806Y391668D02*
X225806Y406908D01*
X180594Y456692D02*
X180594Y471932D01*
X225806Y471932D02*
X225806Y456692D01*
D17*
X490300Y471300D03*
X490300Y463300D03*
X490300Y455300D03*
X490300Y447300D03*
X490300Y439300D03*
X490300Y431300D03*
X490300Y423300D03*
X490300Y415300D03*
X490300Y407300D03*
X490300Y399300D03*
X490300Y391300D03*
X490300Y383300D03*
D18*
X502300Y371300D03*
X510300Y371300D03*
X518300Y371300D03*
X526300Y371300D03*
X534300Y371300D03*
X542300Y371300D03*
X550300Y371300D03*
X558300Y371300D03*
X566300Y371300D03*
X574300Y371300D03*
X582300Y371300D03*
X590300Y371300D03*
D17*
X602300Y383300D03*
X602300Y391300D03*
X602300Y399300D03*
X602300Y407300D03*
X602300Y415300D03*
X602300Y423300D03*
X602300Y431300D03*
X602300Y439300D03*
X602300Y447300D03*
X602300Y455300D03*
X602300Y463300D03*
X602300Y471300D03*
D18*
X590300Y483300D03*
X582300Y483300D03*
X574300Y483300D03*
X566300Y483300D03*
X558300Y483300D03*
X550300Y483300D03*
X542300Y483300D03*
X534300Y483300D03*
X526300Y483300D03*
X518300Y483300D03*
X510300Y483300D03*
X502300Y483300D03*
D19*
X364236Y507492D03*
X501396Y493776D03*
X577596Y441960D03*
X512064Y472440D03*
X445008Y358140D03*
X478536Y405384D03*
X521208Y429768D03*
X478536Y416052D03*
X220980Y434340D03*
X501396Y423672D03*
M02*
