G04 EAGLE Gerber RS-274X export*
G75*
%MOMM*%
%FSLAX34Y34*%
%LPD*%
%INSolderpaste Top*%
%IPPOS*%
%AMOC8*
5,1,8,0,0,1.08239X$1,22.5*%
G01*
%ADD10R,1.300000X1.500000*%
%ADD11R,1.500000X1.300000*%
%ADD12R,0.700000X0.900000*%
%ADD13R,2.000000X5.500000*%
%ADD14R,5.500000X2.000000*%
%ADD15R,1.000000X0.400000*%
%ADD16R,0.400000X1.000000*%


D10*
X498500Y571500D03*
X517500Y571500D03*
X479400Y508000D03*
X460400Y508000D03*
X593700Y342900D03*
X574700Y342900D03*
D11*
X622300Y479400D03*
X622300Y460400D03*
D10*
X511200Y520700D03*
X530200Y520700D03*
X447700Y444500D03*
X466700Y444500D03*
X447700Y393700D03*
X466700Y393700D03*
D12*
X247800Y558800D03*
X234800Y558800D03*
D13*
X406400Y466600D03*
X406400Y371600D03*
D14*
X453900Y558800D03*
X358900Y558800D03*
D10*
X231800Y508000D03*
X250800Y508000D03*
X181000Y495300D03*
X200000Y495300D03*
D15*
X490300Y471300D03*
X490300Y463300D03*
X490300Y455300D03*
X490300Y447300D03*
X490300Y439300D03*
X490300Y431300D03*
X490300Y423300D03*
X490300Y415300D03*
X490300Y407300D03*
X490300Y399300D03*
X490300Y391300D03*
X490300Y383300D03*
D16*
X502300Y371300D03*
X510300Y371300D03*
X518300Y371300D03*
X526300Y371300D03*
X534300Y371300D03*
X542300Y371300D03*
X550300Y371300D03*
X558300Y371300D03*
X566300Y371300D03*
X574300Y371300D03*
X582300Y371300D03*
X590300Y371300D03*
D15*
X602300Y383300D03*
X602300Y391300D03*
X602300Y399300D03*
X602300Y407300D03*
X602300Y415300D03*
X602300Y423300D03*
X602300Y431300D03*
X602300Y439300D03*
X602300Y447300D03*
X602300Y455300D03*
X602300Y463300D03*
X602300Y471300D03*
D16*
X590300Y483300D03*
X582300Y483300D03*
X574300Y483300D03*
X566300Y483300D03*
X558300Y483300D03*
X550300Y483300D03*
X542300Y483300D03*
X534300Y483300D03*
X526300Y483300D03*
X518300Y483300D03*
X510300Y483300D03*
X502300Y483300D03*
M02*
